<svg width="17" height="29" viewBox="0 0 17 29" fill="none" xmlns="http://www.w3.org/2000/svg">
<path fill-rule="evenodd" clip-rule="evenodd" d="M8.5 15C4.375 15 1 11.625 1 7.5C1 3.375 4.375 0 8.5 0C12.625 0 16 3.375 16 7.5C16 11.625 12.625 15 8.5 15ZM8.5 3.56249C6.34375 3.56249 4.56249 5.34375 4.56249 7.5C4.56249 9.65625 6.34375 11.4375 8.5 11.4375C10.6562 11.4375 12.4375 9.65625 12.4375 7.5C12.4375 5.34375 10.6562 3.56249 8.5 3.56249Z" fill="#004EA8"/>
<path fill-rule="evenodd" clip-rule="evenodd" d="M16.6428 15.786C15.9817 14.9243 14.8483 14.8285 13.9982 15.4031C13.9982 15.4031 11.9204 16.9351 8.5202 16.9351C5.12003 16.9351 3.04215 15.4031 3.04215 15.4031C2.1921 14.7328 1.05871 14.9243 0.397568 15.786C-0.263575 16.6478 -0.0746829 17.7969 0.775359 18.4671C0.869808 18.5629 2.85325 20.0949 6.15897 20.5737L1.15316 25.7444C0.397571 26.5104 0.397571 27.7552 1.15316 28.4255C1.53096 28.8085 2.0032 29 2.47545 29C2.94769 29 3.41994 28.8085 3.79774 28.4255L8.5202 23.5421L13.2426 28.4255C13.6204 28.8085 14.0927 29 14.5649 29C15.0372 29 15.5094 28.8085 15.8872 28.4255C16.6428 27.6595 16.6428 26.5104 15.8872 25.7444L10.8814 20.5737C14.1871 19.9992 16.1706 18.4671 16.265 18.4671C17.1151 17.7969 17.2095 16.5521 16.6428 15.786Z" fill="#004EA8"/>
</svg>
