<svg width="31" height="27" viewBox="0 0 31 27" fill="none" xmlns="http://www.w3.org/2000/svg">
<path d="M29.4224 0.0840759L0.700663 11.9262C-0.308245 12.3514 -0.200915 13.7971 0.850926 14.0735L6.62532 15.583C6.99024 15.6681 7.29077 15.9657 7.41957 16.3271L10.339 25.2353C10.5966 26.0645 11.7128 26.2984 12.2924 25.618L15.5982 21.8336C16.006 21.3659 16.7144 21.3021 17.1867 21.6848L23.6265 26.7448C24.292 27.2763 25.2794 26.9362 25.4726 26.107L30.9679 1.38097C31.1826 0.488028 30.281 -0.256093 29.4224 0.0840759ZM24.1632 6.31342L11.9275 16.8799C11.6484 17.1138 11.4767 17.454 11.4552 17.8154L11.0259 22.599C11.0044 22.8116 10.7254 22.8329 10.661 22.6415L8.70753 15.7106C8.62167 15.4342 8.729 15.1366 8.9866 14.9877L23.97 6.0583C24.1417 5.95199 24.3134 6.18586 24.1632 6.31342Z" fill="#004EA8"/>
</svg>
