<svg width="32" height="18" viewBox="0 0 32 18" fill="none" xmlns="http://www.w3.org/2000/svg">
<path fill-rule="evenodd" clip-rule="evenodd" d="M15.5577 17.8868H17.5038C17.5038 17.8868 18.0876 17.7917 18.3795 17.5063C18.6714 17.2208 18.6714 16.65 18.6714 16.65C18.6714 16.65 18.6714 14.1763 19.8391 13.7957C21.0067 13.4151 22.5636 16.2694 24.1204 17.316C25.2881 18.1723 26.2611 17.982 26.2611 17.982L30.5425 17.8868C30.5425 17.8868 32.7804 17.7917 31.7101 15.984C31.6128 15.8888 31.1263 14.7471 28.4991 12.3685C25.7746 9.89484 26.1638 10.3706 29.3748 6.08915C31.3209 3.5203 32.0993 1.99798 31.9047 1.23684C31.7101 0.570844 30.2505 0.76113 30.2505 0.76113H25.3854C25.3854 0.76113 24.9962 0.761165 24.8015 0.856307C24.5096 1.04659 24.4123 1.33202 24.4123 1.33202C24.4123 1.33202 23.6339 3.32998 22.6609 5.04255C20.5202 8.56283 19.6445 8.75313 19.3526 8.56284C18.5741 8.08713 18.7687 6.46971 18.7687 5.42314C18.7687 1.99801 19.3526 0.570868 17.6984 0.190297C17.2119 0.0951543 16.8227 0 15.4604 0C13.709 0 12.2494 2.32225e-05 11.471 0.380594C10.8872 0.666022 10.498 1.23684 10.7899 1.23684C11.0818 1.23684 11.8602 1.42714 12.2494 1.90285C12.7359 2.56885 12.7359 3.996 12.7359 3.996C12.7359 3.996 13.0278 8.08713 12.0548 8.56284C11.3737 8.94341 10.498 8.18228 8.55189 4.94743C7.57885 3.33 6.80042 1.42714 6.80042 1.42714C6.80042 1.42714 6.70312 1.04659 6.41121 0.856307C6.1193 0.666022 5.63278 0.570891 5.63278 0.570891H1.05953C1.05953 0.570891 0.378402 0.570879 0.0864919 0.856307C-0.108115 1.14174 0.0864919 1.61744 0.0864919 1.61744C0.0864919 1.61744 3.68671 9.79971 7.77346 13.986C11.2764 18.1723 15.5577 17.8868 15.5577 17.8868Z" fill="#004EA8"/>
</svg>
