<svg width="108" height="31" viewBox="0 0 108 31" fill="none" xmlns="http://www.w3.org/2000/svg">
<g clip-path="url(#clip0_266_516)">
<path d="M17.9778 5.70224C18.5566 5.70224 18.9667 5.49283 19.2088 5.07327C19.4509 4.65372 19.5942 4.09455 19.6385 3.39505L19.7927 1.24128H22.3093V5.61571H23.6152V0.120041H18.6569L18.4679 3.16527C18.4337 3.65682 18.3602 3.97894 18.2468 4.13163C18.1334 4.28433 17.9654 4.36068 17.7422 4.36068C17.6658 4.36068 17.6011 4.35704 17.5473 4.3505C17.4935 4.34396 17.4346 4.33159 17.3721 4.31269V5.63389C17.4455 5.65498 17.5313 5.6717 17.6287 5.68334C17.7262 5.69497 17.8433 5.70079 17.98 5.70079L17.9778 5.70224Z" fill="white"/>
<path d="M29.7425 4.5381H25.8567V3.32306H29.3004V2.32107H25.8567V1.22456H29.6828V0.120041H24.6104V5.61498H29.7425V4.5381Z" fill="white"/>
<path d="M32.5833 5.61498H33.9089V1.24055H36.3186V0.120041H30.1729V1.24055H32.5833V5.61498Z" fill="white"/>
<path d="M2.93341 8.03123L-0.0449219 13.5378H1.36717L1.97287 12.354H5.1948L5.79759 13.5378H7.30857L4.3026 8.03123H2.93341ZM2.48114 11.3608L3.36315 9.63674C3.4155 9.5444 3.45695 9.47023 3.48749 9.41424C3.51803 9.35752 3.55002 9.29499 3.5842 9.22664H3.59583C3.63 9.29208 3.662 9.35389 3.69254 9.41206C3.72308 9.47023 3.76307 9.54585 3.81252 9.64111L4.68798 11.3608H2.48041H2.48114Z" fill="white"/>
<path d="M10.1667 13.5378V9.16339H12.5764V8.04288H6.43066V9.16339H8.84111V13.5378H10.1667Z" fill="white"/>
<path d="M16.5936 7.92436C15.5204 7.92436 14.6231 8.16722 13.9011 8.65222C13.179 9.13722 12.8184 9.83745 12.8184 10.7529C12.8184 11.6684 13.179 12.4304 13.9011 12.9205C14.6231 13.4113 15.5189 13.6564 16.5893 13.6564C17.6596 13.6564 18.5649 13.4113 19.2971 12.9205C20.0293 12.4304 20.3958 11.7076 20.3958 10.7529C20.3958 9.79818 20.0301 9.13722 19.2993 8.65222C18.5685 8.16722 17.6662 7.92436 16.5929 7.92436H16.5936ZM19.0397 10.7885C19.0397 11.3855 18.8092 11.8429 18.3475 12.1614C17.8858 12.4799 17.304 12.6362 16.6016 12.6311C15.8941 12.6282 15.3146 12.4704 14.8623 12.1555C14.4101 11.8414 14.1839 11.3841 14.1839 10.7849V10.7456C14.1839 10.1727 14.4086 9.73347 14.8587 9.42807C15.3088 9.12268 15.8898 8.97289 16.6024 8.97798C17.3099 8.98089 17.893 9.13286 18.3518 9.43389C18.8107 9.73492 19.0404 10.1734 19.0404 10.7493V10.7885H19.0397Z" fill="white"/>
<path d="M10.7772 0.120041C9.70398 0.120041 8.8067 0.362903 8.08466 0.847901C7.36261 1.3329 7.00195 2.03313 7.00195 2.94859C7.00195 3.86405 7.36261 4.62608 8.08466 5.11617C8.8067 5.60699 9.70253 5.85203 10.7729 5.85203C11.8432 5.85203 12.7485 5.60699 13.4807 5.11617C14.2129 4.62608 14.5794 3.90331 14.5794 2.94859C14.5794 1.99386 14.2137 1.3329 13.4829 0.847901C12.7521 0.362903 11.8498 0.120041 10.7765 0.120041H10.7772ZM13.2233 2.98422C13.2233 3.58119 12.9928 4.03856 12.5311 4.35705C12.0693 4.67553 11.4876 4.83186 10.7852 4.82677C10.0777 4.82386 9.4982 4.66608 9.04593 4.35123C8.59365 4.03711 8.36751 3.57974 8.36751 2.98058V2.94132C8.36751 2.36834 8.59219 1.92915 9.04229 1.62375C9.49238 1.31836 10.0734 1.16857 10.786 1.17366C11.4935 1.17657 12.0766 1.32854 12.5354 1.62957C12.9943 1.9306 13.224 2.36906 13.224 2.94495V2.98422H13.2233Z" fill="white"/>
<path d="M25.8323 13.5378L28.085 10.1923C28.1141 10.1479 28.1373 10.1058 28.1562 10.0658C28.1744 10.0265 28.197 9.98287 28.2231 9.9356H28.2704C28.2704 9.98578 28.2631 10.0287 28.2486 10.0658C28.234 10.1028 28.2268 10.1457 28.2268 10.1959L28.2188 13.5371H29.5087V8.04288H27.9825L25.5291 11.6916C25.484 11.7549 25.4528 11.8014 25.4346 11.832C25.4164 11.8625 25.399 11.896 25.383 11.9323H25.375C25.3568 11.8952 25.3386 11.8618 25.3219 11.832C25.3044 11.8014 25.2739 11.7549 25.2295 11.6916L22.7406 8.04288H21.2412V13.5378H22.4403L22.4286 10.1218C22.4286 10.0665 22.4221 10.0229 22.409 9.98941C22.3959 9.95669 22.3894 9.91015 22.3894 9.84908H22.433C22.4642 9.90943 22.4875 9.95596 22.5021 9.98723C22.5166 10.0185 22.542 10.0621 22.5791 10.1174L24.9343 13.5378H25.8338H25.8323Z" fill="white"/>
<path d="M32.2788 11.2779H35.7073V13.5378H37.0168V8.04288H35.7073V10.1138H32.2788V8.04288H30.9736V13.5378H32.2788V11.2779Z" fill="white"/>
<path d="M38.9809 12.9205C39.7029 13.4113 40.5988 13.6564 41.6691 13.6564C42.7394 13.6564 43.6447 13.4113 44.377 12.9205C45.1092 12.4304 45.4756 11.7076 45.4756 10.7529C45.4756 9.79818 45.1099 9.13722 44.3791 8.65222C43.6484 8.16722 42.746 7.92436 41.6727 7.92436C40.5995 7.92436 39.7022 8.16722 38.9802 8.65222C38.2581 9.13722 37.8975 9.83745 37.8975 10.7529C37.8975 11.6684 38.2581 12.4304 38.9802 12.9205H38.9809ZM39.263 10.7449C39.263 10.1719 39.4877 9.73274 39.9378 9.42735C40.3879 9.12195 40.9689 8.97216 41.6815 8.97725C42.389 8.98016 42.9721 9.13213 43.4309 9.43316C43.8898 9.7342 44.1195 10.1727 44.1195 10.7485V10.7878C44.1195 11.3848 43.889 11.8422 43.4273 12.1606C42.9656 12.4791 42.3839 12.6355 41.6815 12.6304C40.974 12.6275 40.3944 12.4697 39.9422 12.1548C39.4899 11.8407 39.2637 11.3833 39.2637 10.7842V10.7449H39.263Z" fill="white"/>
<path d="M48.2687 7.11774C48.55 7.27696 48.8764 7.3562 49.2472 7.3562C49.618 7.3562 49.9429 7.27696 50.2214 7.11992C50.4998 6.96216 50.7128 6.69826 50.8604 6.32749L50.0556 5.95672C49.9713 6.16173 49.8586 6.31222 49.7161 6.40819C49.5744 6.50415 49.4173 6.55213 49.2465 6.55213C49.0756 6.55213 48.9215 6.5027 48.7768 6.40383C48.6322 6.30495 48.5217 6.15592 48.4453 5.95599L47.6289 6.32676C47.7736 6.69463 47.9866 6.95853 48.2679 7.11774H48.2687Z" fill="white"/>
<path d="M50.6117 10.1377C50.6909 10.0643 50.7455 9.99959 50.7774 9.94433C50.8094 9.88907 50.8349 9.8389 50.8567 9.79454H50.8807C50.8858 9.83962 50.8873 9.89052 50.8843 9.94869C50.8814 10.0069 50.8807 10.0694 50.8807 10.1377V13.5378H52.1743V8.04288H50.6909L47.882 11.4117C47.8107 11.4851 47.7613 11.5433 47.7322 11.5855C47.7031 11.6276 47.6755 11.6749 47.6493 11.7273H47.6297V8.04288H46.3281V13.5378H47.8195L50.6124 10.1377H50.6117Z" fill="white"/>
<path d="M0.90332 21.4614H2.20489V17.0906H5.32865V21.4614H6.63458V15.9664H0.90332V21.4614Z" fill="white"/>
<path d="M13.4613 16.4732C13.1021 16.1351 12.5516 15.9664 11.8107 15.9664H8.27246V21.4614H9.57839V19.8995H11.7954C12.5582 19.8995 13.1166 19.7206 13.47 19.3629C13.8234 19.0051 14.0008 18.5267 14.0008 17.9268C14.0008 17.2956 13.8212 16.8114 13.462 16.4732H13.4613ZM12.4258 18.6408C12.2441 18.8037 11.951 18.8851 11.546 18.8851H9.57766V17.0273H11.546C11.951 17.0302 12.2441 17.1073 12.4258 17.26C12.6076 17.4127 12.6978 17.6403 12.6978 17.9428C12.6978 18.2453 12.6069 18.4779 12.4258 18.6408Z" fill="white"/>
<path d="M20.8137 16.5758C20.0829 16.0908 19.1806 15.8479 18.1073 15.8479C17.0341 15.8479 16.1368 16.0908 15.4147 16.5758C14.6927 17.0608 14.332 17.761 14.332 18.6765C14.332 19.5919 14.6927 20.354 15.4147 20.8441C16.1368 21.3349 17.0326 21.5799 18.1029 21.5799C19.1733 21.5799 20.0786 21.3349 20.8108 20.8441C21.543 20.354 21.9095 19.6312 21.9095 18.6765C21.9095 17.7218 21.5437 17.0608 20.813 16.5758H20.8137ZM20.5534 18.7121C20.5534 19.3091 20.3229 19.7665 19.8612 20.0849C19.3994 20.4034 18.8177 20.5598 18.1153 20.5547C17.4078 20.5518 16.8283 20.394 16.376 20.0791C15.9237 19.765 15.6976 19.3076 15.6976 18.7085V18.6692C15.6976 18.0962 15.9223 17.657 16.3724 17.3516C16.8225 17.0462 17.4034 16.8965 18.116 16.9015C18.8235 16.9045 19.4067 17.0564 19.8655 17.3575C20.3243 17.6585 20.5541 18.097 20.5541 18.6728V18.7121H20.5534Z" fill="white"/>
<path d="M27.0428 19.6152C26.9984 19.6785 26.9664 19.725 26.9483 19.7555C26.9301 19.7861 26.9126 19.8195 26.8966 19.8559H26.8886C26.8705 19.8188 26.8523 19.7854 26.8355 19.7555C26.8181 19.725 26.7876 19.6785 26.7432 19.6152L24.2542 15.9665H22.7549V21.4614H23.9539L23.9423 18.0453C23.9423 17.9901 23.9357 17.9464 23.9227 17.913C23.9096 17.8803 23.903 17.8337 23.903 17.7727H23.9467C23.9779 17.833 24.0012 17.8795 24.0157 17.9108C24.0303 17.9421 24.0557 17.9857 24.0928 18.041L26.448 21.4614H27.3475L29.6001 18.1159C29.6292 18.0715 29.6525 18.0293 29.6714 17.9893C29.6895 17.9501 29.7121 17.9064 29.7383 17.8592H29.7855C29.7855 17.9094 29.7783 17.9523 29.7637 17.9893C29.7492 18.0264 29.7419 18.0693 29.7419 18.1195L29.7339 21.4607H31.0238V15.9657H29.4976L27.0435 19.6145L27.0428 19.6152Z" fill="white"/>
<path d="M39.5777 15.9621H38.2441V21.457H39.5777V15.9621Z" fill="white"/>
<path d="M35.5367 17.5916H33.5604V15.9664H32.2588V21.4614H35.5563C36.2667 21.4614 36.7903 21.2956 37.1284 20.964C37.4665 20.6324 37.6352 20.1569 37.6352 19.5359C37.6352 18.915 37.468 18.4758 37.1342 18.1217C36.8005 17.7683 36.2675 17.5908 35.5367 17.5908V17.5916ZM36.0951 20.1969C35.9359 20.335 35.6814 20.4041 35.3317 20.4041H33.5604V18.6568H35.3353C35.6821 18.6568 35.9352 18.7361 36.0944 18.8931C36.2537 19.0509 36.3329 19.2654 36.3329 19.5359C36.3329 19.8384 36.2537 20.0587 36.0944 20.1969H36.0951Z" fill="white"/>
<path d="M48.0231 20.3372H45.9166V15.9664H44.607V20.3372H42.4969V15.9664H41.1953V21.4614H49.329V15.9664H48.0231V20.3372Z" fill="white"/>
<path d="M51.4483 19.0117C51.4142 19.5032 51.3407 19.8254 51.2273 19.978C51.1138 20.1307 50.9459 20.2071 50.7226 20.2071C50.6463 20.2071 50.5816 20.2035 50.5278 20.1969C50.474 20.1904 50.4151 20.178 50.3525 20.1591V21.4803C50.426 21.5014 50.5118 21.5181 50.6092 21.5298C50.7067 21.5414 50.8237 21.5472 50.9604 21.5472C51.5392 21.5472 51.9493 21.3378 52.1915 20.9182C52.4336 20.4987 52.5768 19.9395 52.6212 19.24L52.7754 17.0862H55.292V21.4607H56.5979V15.9657H51.6396L51.4505 19.011L51.4483 19.0117Z" fill="white"/>
<path d="M59.4843 19.1695H62.928V18.1675H59.4843V17.0709H63.3105V15.9664H58.2373V21.4614H63.3694V20.3845H59.4843V19.1695Z" fill="white"/>
<path d="M69.1731 18.0373H65.7447V15.9664H64.4395V21.4614H65.7447V19.2007H69.1731V21.4614H70.4827V15.9664H69.1731V18.0373Z" fill="white"/>
<path d="M76.5989 18.0373H73.1704V15.9664H71.8652V21.4614H73.1704V19.2007H76.5989V21.4614H77.9084V15.9664H76.5989V18.0373Z" fill="white"/>
<path d="M85.2697 16.5758C84.539 16.0908 83.6366 15.8479 82.5634 15.8479C81.4901 15.8479 80.5928 16.0908 79.8708 16.5758C79.1487 17.0608 78.7881 17.761 78.7881 18.6765C78.7881 19.5919 79.1487 20.354 79.8708 20.8441C80.5928 21.3349 81.4887 21.5799 82.559 21.5799C83.6293 21.5799 84.5346 21.3349 85.2668 20.8441C85.9991 20.354 86.3655 19.6312 86.3655 18.6765C86.3655 17.7218 85.9998 17.0608 85.269 16.5758H85.2697ZM85.0094 18.7121C85.0094 19.3091 84.7789 19.7665 84.3172 20.0849C83.8555 20.4034 83.2738 20.5598 82.5714 20.5547C81.8639 20.5518 81.2843 20.394 80.8321 20.0791C80.3798 19.765 80.1536 19.3076 80.1536 18.7085V18.6692C80.1536 18.0962 80.3783 17.657 80.8284 17.3516C81.2785 17.0462 81.8595 16.8965 82.5721 16.9015C83.2796 16.9045 83.8627 17.0564 84.3216 17.3575C84.7804 17.6585 85.0102 18.097 85.0102 18.6728V18.7121H85.0094Z" fill="white"/>
<path d="M88.7327 17.4062C89.1544 17.0615 89.747 16.8892 90.5098 16.8892C91.1511 16.8892 91.6259 17.0019 91.9335 17.2266C92.2411 17.4513 92.4672 17.7058 92.6119 17.9901L92.6352 18.1086H93.9527L93.9331 17.9624C93.723 17.2157 93.3609 16.6761 92.8482 16.3453C92.3356 16.0137 91.5481 15.8479 90.4851 15.8479C89.422 15.8479 88.4767 16.0872 87.7728 16.5656C87.069 17.0441 86.7178 17.7559 86.7178 18.6997V18.7274C86.7178 19.6581 87.0683 20.3663 87.7692 20.8513C88.4702 21.3363 89.3769 21.5792 90.4894 21.5792C91.6019 21.5792 92.4207 21.4105 92.9864 21.0724C93.5521 20.7343 93.8699 20.2027 93.9411 19.4771L93.9527 19.3353H92.6432L92.6272 19.4654C92.5748 19.7417 92.3887 19.9911 92.0687 20.2151C91.7495 20.4383 91.2304 20.5503 90.5127 20.5503C89.795 20.5503 89.1798 20.4107 88.7472 20.1322C88.3146 19.8537 88.0979 19.3876 88.0979 18.7361V18.6845C88.0979 18.1769 88.3087 17.7508 88.7312 17.4062H88.7327Z" fill="white"/>
<path d="M94.0449 17.0862H96.4554V21.4614H97.7809V17.0862H100.191V15.9664H94.0449V17.0862Z" fill="white"/>
<path d="M105.295 15.9664L102.487 19.3352C102.415 19.4087 102.366 19.4668 102.337 19.509C102.308 19.5512 102.28 19.5985 102.254 19.6508H102.234V15.9664H100.933V21.4614H102.424L105.217 18.0613C105.296 17.9879 105.351 17.9231 105.383 17.8679C105.414 17.8126 105.44 17.7624 105.462 17.7181H105.485C105.49 17.7632 105.492 17.8141 105.489 17.8722C105.486 17.9304 105.485 17.993 105.485 18.0613V21.4614H106.779V15.9664H105.296H105.295Z" fill="white"/>
<path d="M3.31354 0.152115C4.20355 0.152115 4.88624 0.29118 5.36158 0.56931C5.83693 0.84744 6.07461 1.23935 6.07461 1.74504C6.07461 2.19511 5.86222 2.53898 5.43744 2.77665C5.01266 3.01433 4.421 3.12305 3.66246 3.10282V2.94353C4.4918 2.8879 5.13402 2.98651 5.58915 3.23936C6.04427 3.48715 6.27183 3.86895 6.27183 4.38475C6.27183 4.92584 6.01645 5.34304 5.50571 5.63634C5.00002 5.92458 4.26929 6.0687 3.31354 6.0687C2.35778 6.0687 1.62453 5.92458 1.11378 5.63634C0.60303 5.34304 0.347656 4.92584 0.347656 4.38475C0.347656 3.86895 0.575217 3.48715 1.03034 3.23936C1.49052 2.98651 2.13275 2.8879 2.95702 2.94353V3.10282C2.20354 3.12305 1.61188 3.01433 1.18205 2.77665C0.757266 2.53898 0.544876 2.19511 0.544876 1.74504C0.544876 1.23935 0.782551 0.84744 1.2579 0.56931C1.73831 0.29118 2.42352 0.152115 3.31354 0.152115ZM3.31354 5.06743C3.85462 5.06743 4.26676 5.00169 4.54995 4.87021C4.83314 4.73873 4.97473 4.54404 4.97473 4.28614C4.97473 4.02318 4.83314 3.83102 4.54995 3.70965C4.26676 3.58323 3.85462 3.52002 3.31354 3.52002C2.77245 3.52002 2.35778 3.58323 2.06953 3.70965C1.78635 3.83102 1.64475 4.02318 1.64475 4.28614C1.64475 4.54404 1.78635 4.73873 2.06953 4.87021C2.35778 5.00169 2.77245 5.06743 3.31354 5.06743ZM3.31354 2.57943C3.62706 2.57943 3.89508 2.55415 4.11758 2.50358C4.34009 2.45301 4.50697 2.37463 4.61822 2.26843C4.73453 2.15718 4.79268 2.02317 4.79268 1.86641C4.79268 1.63379 4.66373 1.4568 4.40583 1.33543C4.15298 1.21407 3.78888 1.15338 3.31354 1.15338C2.83819 1.15338 2.47156 1.21407 2.21366 1.33543C1.95575 1.4568 1.8268 1.63379 1.8268 1.86641C1.8268 2.02317 1.88243 2.15718 1.99368 2.26843C2.10999 2.37463 2.2794 2.45301 2.5019 2.50358C2.7244 2.55415 2.99495 2.57943 3.31354 2.57943Z" fill="white"/>
</g>
<defs>
<clipPath id="clip0_266_516">
<rect width="107.946" height="30.1019" fill="white" transform="translate(0 0.120041)"/>
</clipPath>
</defs>
</svg>
