<svg width="148" height="41" viewBox="0 0 148 41" fill="none" xmlns="http://www.w3.org/2000/svg">
<g clip-path="url(#clip0_156_18988)">
<path d="M24.4871 7.60319C25.2754 7.60319 25.834 7.31796 26.1638 6.74651C26.4936 6.17506 26.6887 5.41345 26.7491 4.4607L26.9591 1.52718H30.3868V7.48534H32.1656V0H25.4121L25.1546 4.14774C25.1081 4.81724 25.008 5.25598 24.8535 5.46396C24.699 5.67194 24.4703 5.77593 24.1662 5.77593C24.0622 5.77593 23.9741 5.77098 23.9008 5.76207C23.8275 5.75315 23.7473 5.73632 23.6621 5.71057V7.5101C23.7621 7.53882 23.879 7.5616 24.0117 7.57744C24.1444 7.59329 24.3039 7.60121 24.4901 7.60121L24.4871 7.60319Z" fill="#004EA8"/>
<path d="M40.5107 6.01759H35.218V4.36265H39.9085V2.9979H35.218V1.5044H40.4294V0H33.5205V7.48435H40.5107V6.01759Z" fill="#004EA8"/>
<path d="M44.3798 7.48435H46.1853V1.52618H49.4674V0H41.0967V1.52618H44.3798V7.48435Z" fill="#004EA8"/>
<path d="M3.99607 10.7754L-0.0605469 18.2756H1.86278L2.68777 16.6633H7.07618L7.8972 18.2756H9.95523L5.86097 10.7754H3.99607ZM3.38005 15.3104L4.58139 12.9622C4.6527 12.8364 4.70915 12.7354 4.75074 12.6591C4.79234 12.5819 4.83592 12.4967 4.88247 12.4036H4.89831C4.94486 12.4927 4.98844 12.5769 5.03003 12.6561C5.07163 12.7354 5.1261 12.8384 5.19345 12.9681L6.38587 15.3104H3.37906H3.38005Z" fill="#004EA8"/>
<path d="M13.8474 18.2756V12.3174H17.1295V10.7912H8.75879V12.3174H12.0419V18.2756H13.8474Z" fill="#004EA8"/>
<path d="M22.6011 10.6298C21.1393 10.6298 19.9171 10.9606 18.9337 11.6212C17.9502 12.2818 17.459 13.2355 17.459 14.4824C17.459 15.7293 17.9502 16.7672 18.9337 17.4348C19.9171 18.1033 21.1373 18.437 22.5951 18.437C24.053 18.437 25.286 18.1033 26.2833 17.4348C27.2806 16.7672 27.7798 15.7828 27.7798 14.4824C27.7798 13.182 27.2816 12.2818 26.2863 11.6212C25.291 10.9606 24.0619 10.6298 22.6001 10.6298H22.6011ZM25.9327 14.531C25.9327 15.3441 25.6188 15.967 24.9899 16.4008C24.361 16.8346 23.5687 17.0475 22.612 17.0406C21.6483 17.0366 20.859 16.8217 20.243 16.3929C19.6269 15.965 19.3189 15.3421 19.3189 14.526V14.4725C19.3189 13.6921 19.625 13.0939 20.238 12.6779C20.8511 12.262 21.6424 12.058 22.613 12.0649C23.5766 12.0689 24.3709 12.2758 24.9958 12.6859C25.6208 13.0959 25.9337 13.6931 25.9337 14.4775V14.531H25.9327Z" fill="#004EA8"/>
<path d="M14.6792 0C13.2174 0 11.9952 0.330788 11.0118 0.991376C10.0283 1.65196 9.53711 2.60571 9.53711 3.8526C9.53711 5.0995 10.0283 6.13742 11.0118 6.80494C11.9952 7.47345 13.2154 7.80721 14.6733 7.80721C16.1311 7.80721 17.3641 7.47345 18.3615 6.80494C19.3588 6.13742 19.8579 5.15298 19.8579 3.8526C19.8579 2.55222 19.3598 1.65196 18.3644 0.991376C17.3691 0.330788 16.14 0 14.6782 0H14.6792ZM18.0109 3.90113C18.0109 4.71424 17.6969 5.33719 17.068 5.77098C16.4391 6.20477 15.6468 6.4177 14.6901 6.41077C13.7264 6.40681 12.9371 6.19189 12.3211 5.76306C11.7051 5.33521 11.3971 4.71226 11.3971 3.89618V3.8427C11.3971 3.06227 11.7031 2.46408 12.3161 2.04812C12.9292 1.63216 13.7205 1.42814 14.6911 1.43507C15.6547 1.43903 16.449 1.64602 17.074 2.05604C17.6989 2.46606 18.0118 3.06326 18.0118 3.84765V3.90113H18.0109Z" fill="#004EA8"/>
<path d="M35.1849 18.2756L38.2532 13.7188C38.2928 13.6584 38.3245 13.601 38.3502 13.5465C38.375 13.493 38.4057 13.4336 38.4413 13.3692H38.5057C38.5057 13.4376 38.4958 13.496 38.476 13.5465C38.4562 13.597 38.4463 13.6554 38.4463 13.7238L38.4354 18.2746H40.1923V10.7912H38.1135L34.7719 15.761C34.7105 15.8472 34.668 15.9106 34.6432 15.9521C34.6184 15.9937 34.5947 16.0393 34.5729 16.0888H34.562C34.5372 16.0383 34.5125 15.9928 34.4897 15.9521C34.4659 15.9106 34.4243 15.8472 34.3639 15.761L30.9738 10.7912H28.9316V18.2756H30.5648L30.5489 13.6228C30.5489 13.5475 30.54 13.4881 30.5222 13.4425C30.5044 13.3979 30.4955 13.3346 30.4955 13.2514H30.5549C30.5975 13.3336 30.6292 13.3969 30.649 13.4395C30.6688 13.4821 30.7034 13.5415 30.7539 13.6168L33.9618 18.2756H35.1869H35.1849Z" fill="#004EA8"/>
<path d="M43.9653 15.1975H48.6349V18.2756H50.4186V10.7912H48.6349V13.6119H43.9653V10.7912H42.1875V18.2756H43.9653V15.1975Z" fill="#004EA8"/>
<path d="M53.0929 17.4348C54.0763 18.1033 55.2965 18.437 56.7543 18.437C58.2122 18.437 59.4452 18.1033 60.4425 17.4348C61.4398 16.7672 61.939 15.7828 61.939 14.4824C61.939 13.182 61.4408 12.2818 60.4455 11.6212C59.4502 10.9606 58.2211 10.6298 56.7593 10.6298C55.2975 10.6298 54.0753 10.9606 53.0919 11.6212C52.1084 12.2818 51.6172 13.2355 51.6172 14.4824C51.6172 15.7293 52.1084 16.7672 53.0919 17.4348H53.0929ZM53.4771 14.4715C53.4771 13.6911 53.7832 13.0929 54.3962 12.6769C55.0093 12.261 55.8006 12.057 56.7712 12.0639C57.7348 12.0679 58.5291 12.2749 59.154 12.6849C59.779 13.0949 60.0919 13.6921 60.0919 14.4765V14.53C60.0919 15.3431 59.778 15.966 59.1491 16.3998C58.5202 16.8336 57.7279 17.0465 56.7712 17.0396C55.8075 17.0356 55.0182 16.8207 54.4022 16.3919C53.7861 15.964 53.4781 15.3411 53.4781 14.525V14.4715H53.4771Z" fill="#004EA8"/>
<path d="M65.7444 9.53119C66.1276 9.74804 66.5722 9.85598 67.0772 9.85598C67.5823 9.85598 68.0249 9.74804 68.4041 9.53416C68.7834 9.31928 69.0735 8.95984 69.2745 8.45483L68.1784 7.94983C68.0635 8.22907 67.91 8.43404 67.7159 8.56475C67.5228 8.69545 67.309 8.76081 67.0763 8.76081C66.8436 8.76081 66.6336 8.69347 66.4366 8.5588C66.2395 8.42414 66.089 8.22114 65.985 7.94884L64.873 8.45384C65.0701 8.95489 65.3602 9.31433 65.7434 9.53119H65.7444Z" fill="#004EA8"/>
<path d="M68.9359 13.6445C69.0439 13.5445 69.1182 13.4564 69.1617 13.3811C69.2053 13.3058 69.24 13.2375 69.2697 13.1771H69.3024C69.3093 13.2385 69.3113 13.3078 69.3073 13.387C69.3034 13.4663 69.3024 13.5515 69.3024 13.6445V18.2756H71.0643V10.7912H69.0439L65.218 15.3797C65.121 15.4797 65.0536 15.559 65.014 15.6164C64.9744 15.6738 64.9367 15.7382 64.9011 15.8095H64.8744V10.7912H63.1016V18.2756H65.1328L68.9369 13.6445H68.9359Z" fill="#004EA8"/>
<path d="M1.23047 29.0678H3.00326V23.1146H7.25796V29.0678H9.03669V21.5835H1.23047V29.0678Z" fill="#004EA8"/>
<path d="M18.335 22.2738C17.8457 21.8132 17.096 21.5835 16.0868 21.5835H11.2676V29.0678H13.0463V26.9405H16.066C17.1049 26.9405 17.8655 26.6968 18.3469 26.2096C18.8282 25.7223 19.0698 25.0706 19.0698 24.2535C19.0698 23.3939 18.8252 22.7343 18.336 22.2738H18.335ZM16.9247 25.2261C16.6771 25.448 16.2779 25.5589 15.7263 25.5589H13.0453V23.0284H15.7263C16.2779 23.0324 16.6771 23.1374 16.9247 23.3454C17.1723 23.5533 17.2951 23.8633 17.2951 24.2753C17.2951 24.6873 17.1713 25.0043 16.9247 25.2261Z" fill="#004EA8"/>
<path d="M28.3488 22.4134C27.3535 21.7528 26.1244 21.4221 24.6626 21.4221C23.2008 21.4221 21.9786 21.7528 20.9952 22.4134C20.0117 23.074 19.5205 24.0278 19.5205 25.2747C19.5205 26.5216 20.0117 27.5595 20.9952 28.227C21.9786 28.8955 23.1988 29.2293 24.6566 29.2293C26.1145 29.2293 27.3475 28.8955 28.3449 28.227C29.3422 27.5595 29.8413 26.575 29.8413 25.2747C29.8413 23.9743 29.3432 23.074 28.3478 22.4134H28.3488ZM27.9943 25.3232C27.9943 26.1363 27.6803 26.7592 27.0514 27.193C26.4225 27.6268 25.6302 27.8398 24.6735 27.8328C23.7098 27.8289 22.9205 27.614 22.3045 27.1851C21.6885 26.7573 21.3805 26.1343 21.3805 25.3182V25.2648C21.3805 24.4843 21.6865 23.8861 22.2995 23.4702C22.9126 23.0542 23.7039 22.8502 24.6745 22.8571C25.6381 22.8611 26.4324 23.0681 27.0574 23.4781C27.6823 23.8881 27.9952 24.4853 27.9952 25.2697V25.3232H27.9943Z" fill="#004EA8"/>
<path d="M36.8335 26.5532C36.7731 26.6394 36.7295 26.7028 36.7047 26.7444C36.68 26.786 36.6562 26.8316 36.6344 26.8811H36.6235C36.5988 26.8306 36.574 26.785 36.5512 26.7444C36.5274 26.7028 36.4858 26.6394 36.4254 26.5532L33.0353 21.5835H30.9932V29.0678H32.6263L32.6105 24.415C32.6105 24.3397 32.6016 24.2803 32.5837 24.2348C32.5659 24.1902 32.557 24.1268 32.557 24.0436H32.6164C32.659 24.1258 32.6907 24.1892 32.7105 24.2318C32.7303 24.2744 32.765 24.3338 32.8155 24.4091L36.0233 29.0678H37.2484L40.3167 24.5111C40.3563 24.4507 40.388 24.3932 40.4137 24.3387C40.4385 24.2853 40.4692 24.2258 40.5048 24.1615H40.5692C40.5692 24.2298 40.5593 24.2882 40.5395 24.3387C40.5197 24.3893 40.5098 24.4477 40.5098 24.516L40.4989 29.0668H42.2558V21.5825H40.177L36.8345 26.5523L36.8335 26.5532Z" fill="#004EA8"/>
<path d="M53.9062 21.5775H52.0898V29.0619H53.9062V21.5775Z" fill="#004EA8"/>
<path d="M48.4031 23.797H45.7113V21.5835H43.9385V29.0678H48.4299C49.3975 29.0678 50.1106 28.842 50.5711 28.3904C51.0316 27.9388 51.2614 27.2911 51.2614 26.4453C51.2614 25.5995 51.0336 25.0013 50.579 24.519C50.1244 24.0376 49.3985 23.796 48.4031 23.796V23.797ZM49.1638 27.3455C48.9469 27.5337 48.6002 27.6278 48.1238 27.6278H45.7113V25.2479H48.1288C48.6012 25.2479 48.9459 25.3558 49.1628 25.5698C49.3797 25.7847 49.4876 26.0768 49.4876 26.4453C49.4876 26.8573 49.3797 27.1574 49.1628 27.3455H49.1638Z" fill="#004EA8"/>
<path d="M65.4091 27.5367H62.5399V21.5835H60.7563V27.5367H57.8822V21.5835H56.1094V29.0678H67.1878V21.5835H65.4091V27.5367Z" fill="#004EA8"/>
<path d="M70.0745 25.7312C70.028 26.4007 69.928 26.8395 69.7735 27.0475C69.619 27.2554 69.3902 27.3594 69.0861 27.3594C68.9821 27.3594 68.894 27.3545 68.8207 27.3456C68.7474 27.3366 68.6672 27.3198 68.582 27.2941V29.0936C68.6821 29.1223 68.7989 29.1451 68.9316 29.1609C69.0644 29.1768 69.2238 29.1847 69.41 29.1847C70.1983 29.1847 70.7569 28.8995 71.0867 28.328C71.4165 27.7566 71.6116 26.995 71.672 26.0422L71.882 23.1087H75.3097V29.0669H77.0885V21.5825H70.335L70.0775 25.7302L70.0745 25.7312Z" fill="#004EA8"/>
<path d="M81.0198 25.9461H85.7103V24.5814H81.0198V23.0879H86.2312V21.5835H79.3213V29.0678H86.3114V27.6011H81.0198V25.9461Z" fill="#004EA8"/>
<path d="M94.2169 24.4041H89.5473V21.5835H87.7695V29.0678H89.5473V25.9887H94.2169V29.0678H96.0006V21.5835H94.2169V24.4041Z" fill="#004EA8"/>
<path d="M104.33 24.4041H99.6606V21.5835H97.8828V29.0678H99.6606V25.9887H104.33V29.0678H106.114V21.5835H104.33V24.4041Z" fill="#004EA8"/>
<path d="M116.141 22.4134C115.145 21.7528 113.916 21.4221 112.455 21.4221C110.993 21.4221 109.771 21.7528 108.787 22.4134C107.804 23.074 107.312 24.0278 107.312 25.2747C107.312 26.5216 107.804 27.5595 108.787 28.227C109.771 28.8955 110.991 29.2293 112.449 29.2293C113.906 29.2293 115.14 28.8955 116.137 28.227C117.134 27.5595 117.633 26.575 117.633 25.2747C117.633 23.9743 117.135 23.074 116.14 22.4134H116.141ZM115.786 25.3232C115.786 26.1363 115.472 26.7592 114.843 27.193C114.214 27.6268 113.422 27.8398 112.465 27.8328C111.502 27.8289 110.712 27.614 110.096 27.1851C109.48 26.7573 109.172 26.1343 109.172 25.3182V25.2648C109.172 24.4843 109.478 23.8861 110.092 23.4702C110.705 23.0542 111.496 22.8502 112.466 22.8571C113.43 22.8611 114.224 23.0681 114.849 23.4781C115.474 23.8881 115.787 24.4853 115.787 25.2697V25.3232H115.786Z" fill="#004EA8"/>
<path d="M120.857 23.5445C121.431 23.075 122.238 22.8403 123.277 22.8403C124.151 22.8403 124.797 22.9938 125.216 23.2998C125.635 23.6059 125.943 23.9525 126.14 24.3397L126.172 24.5012H127.967L127.94 24.3021C127.654 23.285 127.16 22.5501 126.462 22.0995C125.764 21.6479 124.691 21.4221 123.244 21.4221C121.796 21.4221 120.508 21.7479 119.549 22.3996C118.591 23.0512 118.112 24.0208 118.112 25.3064V25.344C118.112 26.6117 118.59 27.5763 119.544 28.2369C120.499 28.8975 121.734 29.2283 123.249 29.2283C124.765 29.2283 125.88 28.9985 126.65 28.538C127.421 28.0775 127.854 27.3535 127.951 26.3651L127.967 26.1719H126.183L126.161 26.3492C126.09 26.7256 125.836 27.0653 125.401 27.3703C124.966 27.6744 124.259 27.8269 123.281 27.8269C122.304 27.8269 121.466 27.6367 120.876 27.2574C120.287 26.8781 119.992 26.2433 119.992 25.3559V25.2856C119.992 24.5943 120.279 24.0139 120.855 23.5445H120.857Z" fill="#004EA8"/>
<path d="M128.093 23.1087H131.376V29.0678H133.181V23.1087H136.464V21.5835H128.093V23.1087Z" fill="#004EA8"/>
<path d="M143.417 21.5835L139.591 26.1719C139.494 26.272 139.427 26.3512 139.387 26.4086C139.347 26.4661 139.31 26.5304 139.274 26.6018H139.247V21.5835H137.475V29.0678H139.506L143.31 24.4368C143.418 24.3367 143.492 24.2486 143.536 24.1733C143.578 24.0981 143.614 24.0297 143.644 23.9693H143.675C143.682 24.0307 143.684 24.1 143.68 24.1793C143.676 24.2585 143.675 24.3437 143.675 24.4368V29.0678H145.438V21.5835H143.418H143.417Z" fill="#004EA8"/>
<path d="M4.51426 0.0437164C5.7265 0.0437164 6.65635 0.233129 7.30379 0.611954C7.95124 0.990779 8.27496 1.52458 8.27496 2.21335C8.27496 2.82636 7.98568 3.29472 7.40711 3.61845C6.82854 3.94217 6.02268 4.09026 4.98952 4.06271V3.84574C6.1191 3.76998 6.99385 3.90429 7.61374 4.24868C8.23364 4.58617 8.54358 5.1062 8.54358 5.80875C8.54358 6.54573 8.19575 7.11397 7.50009 7.51346C6.81132 7.90606 5.81604 8.10236 4.51426 8.10236C3.21248 8.10236 2.21376 7.90606 1.5181 7.51346C0.82244 7.11397 0.474609 6.54573 0.474609 5.80875C0.474609 5.1062 0.784557 4.58617 1.40445 4.24868C2.03124 3.90429 2.90598 3.76998 4.02868 3.84574V4.06271C3.00241 4.09026 2.19654 3.94217 1.61108 3.61845C1.03252 3.29472 0.743231 2.82636 0.743231 2.21335C0.743231 1.52458 1.06695 0.990779 1.7144 0.611954C2.36873 0.233129 3.30202 0.0437164 4.51426 0.0437164ZM4.51426 6.73859C5.25125 6.73859 5.8126 6.64905 6.19831 6.46997C6.58403 6.29089 6.77688 6.02571 6.77688 5.67444C6.77688 5.31627 6.58403 5.05454 6.19831 4.88923C5.8126 4.71704 5.25125 4.63094 4.51426 4.63094C3.77728 4.63094 3.21248 4.71704 2.81988 4.88923C2.43417 5.05454 2.24131 5.31627 2.24131 5.67444C2.24131 6.02571 2.43417 6.29089 2.81988 6.46997C3.21248 6.64905 3.77728 6.73859 4.51426 6.73859ZM4.51426 3.34983C4.9413 3.34983 5.30635 3.31539 5.60941 3.24651C5.91247 3.17763 6.13977 3.07087 6.2913 2.92623C6.44971 2.7747 6.52892 2.59218 6.52892 2.37866C6.52892 2.06182 6.35329 1.82075 6.00201 1.65545C5.65763 1.49014 5.16171 1.40749 4.51426 1.40749C3.86682 1.40749 3.36746 1.49014 3.01618 1.65545C2.66491 1.82075 2.48927 2.06182 2.48927 2.37866C2.48927 2.59218 2.56504 2.7747 2.71657 2.92623C2.87498 3.07087 3.10572 3.17763 3.40878 3.24651C3.71184 3.31539 4.08034 3.34983 4.51426 3.34983Z" fill="#004EA8"/>
</g>
<defs>
<clipPath id="clip0_156_18988">
<rect width="147.027" height="41" fill="white"/>
</clipPath>
</defs>
</svg>
