<svg width="139" height="35" viewBox="0 0 139 35" fill="none" xmlns="http://www.w3.org/2000/svg">
<g clip-path="url(#clip0_266_799)">
<path d="M23.0339 7.71274C23.7754 7.71274 24.3009 7.44443 24.6111 6.90687C24.9214 6.36932 25.1049 5.65289 25.1617 4.75665L25.3592 1.99713H28.5836V7.60187H30.2569V0.560547H23.904L23.6618 4.46225C23.618 5.09204 23.5239 5.50476 23.3786 5.7004C23.2332 5.89604 23.018 5.99387 22.732 5.99387C22.6342 5.99387 22.5513 5.98921 22.4823 5.98082C22.4134 5.97244 22.3379 5.9566 22.2578 5.93238V7.62517C22.3519 7.65218 22.4618 7.67361 22.5867 7.68852C22.7115 7.70342 22.8615 7.71088 23.0367 7.71088L23.0339 7.71274Z" fill="#004EA8"/>
<path d="M38.1077 6.22119H33.1291V4.66442H37.5413V3.38062H33.1291V1.97571H38.0313V0.560547H31.5322V7.60094H38.1077V6.22119Z" fill="#004EA8"/>
<path d="M41.7466 7.60094H43.445V1.9962H46.5324V0.560547H38.6582V1.9962H41.7466V7.60094Z" fill="#004EA8"/>
<path d="M3.7574 10.6973L-0.0585938 17.7526H1.75065L2.52671 16.2359H6.6548L7.42712 17.7526H9.36307L5.51168 10.6973H3.7574ZM3.17792 14.9632L4.308 12.7543C4.37508 12.636 4.42818 12.541 4.46731 12.4692C4.50643 12.3966 4.54743 12.3165 4.59122 12.2289H4.60612C4.64991 12.3127 4.6909 12.3919 4.73003 12.4664C4.76916 12.541 4.8204 12.6379 4.88375 12.7599L6.00544 14.9632H3.17699H3.17792Z" fill="#004EA8"/>
<path d="M13.026 17.7523V12.1476H16.1135V10.7119H8.23926V12.1476H11.3276V17.7523H13.026Z" fill="#004EA8"/>
<path d="M21.2609 10.5596C19.8858 10.5596 18.7362 10.8707 17.811 11.4921C16.8859 12.1135 16.4238 13.0107 16.4238 14.1836C16.4238 15.3566 16.8859 16.3329 17.811 16.9609C18.7362 17.5897 19.8839 17.9037 21.2553 17.9037C22.6267 17.9037 23.7866 17.5897 24.7247 16.9609C25.6629 16.3329 26.1324 15.4069 26.1324 14.1836C26.1324 12.9604 25.6638 12.1135 24.7275 11.4921C23.7912 10.8707 22.6351 10.5596 21.26 10.5596H21.2609ZM24.3949 14.2293C24.3949 14.9942 24.0996 15.5802 23.508 15.9882C22.9164 16.3963 22.1711 16.5966 21.2711 16.5901C20.3647 16.5863 19.6221 16.3842 19.0427 15.9808C18.4632 15.5783 18.1734 14.9923 18.1734 14.2246V14.1743C18.1734 13.4402 18.4613 12.8775 19.038 12.4862C19.6147 12.0949 20.3591 11.903 21.2721 11.9095C22.1786 11.9132 22.9257 12.108 23.5136 12.4937C24.1015 12.8794 24.3959 13.4411 24.3959 14.179V14.2293H24.3949Z" fill="#004EA8"/>
<path d="M13.8078 0.560547C12.4327 0.560547 11.283 0.871714 10.3579 1.49312C9.4328 2.11452 8.9707 3.01169 8.9707 4.18462C8.9707 5.35756 9.4328 6.33391 10.3579 6.96184C11.283 7.59069 12.4308 7.90466 13.8022 7.90466C15.1736 7.90466 16.3335 7.59069 17.2716 6.96184C18.2098 6.33391 18.6793 5.40786 18.6793 4.18462C18.6793 2.96138 18.2107 2.11452 17.2744 1.49312C16.3381 0.871714 15.1819 0.560547 13.8068 0.560547H13.8078ZM16.9418 4.23027C16.9418 4.99515 16.6465 5.58115 16.0549 5.98921C15.4633 6.39727 14.718 6.59757 13.818 6.59105C12.9115 6.58732 12.169 6.38515 11.5895 5.98175C11.0101 5.57929 10.7203 4.99329 10.7203 4.22561V4.17531C10.7203 3.44118 11.0082 2.87846 11.5849 2.48718C12.1616 2.09589 12.906 1.90397 13.819 1.91049C14.7254 1.91422 15.4726 2.10893 16.0605 2.49463C16.6483 2.88033 16.9427 3.44211 16.9427 4.17996V4.23027H16.9418Z" fill="#004EA8"/>
<path d="M33.0972 17.7523L35.9834 13.4658C36.0207 13.409 36.0505 13.355 36.0747 13.3037C36.098 13.2534 36.1269 13.1975 36.1604 13.137H36.221C36.221 13.2013 36.2117 13.2562 36.193 13.3037C36.1744 13.3512 36.1651 13.4062 36.1651 13.4705L36.1548 17.7514H37.8076V10.7119H35.8521L32.7087 15.3869C32.651 15.4679 32.6109 15.5276 32.5876 15.5667C32.5643 15.6058 32.542 15.6487 32.5215 15.6953H32.5112C32.4879 15.6477 32.4646 15.6049 32.4432 15.5667C32.4208 15.5276 32.3817 15.4679 32.3249 15.3869L29.1359 10.7119H27.2148V17.7523H28.7511L28.7362 13.3755C28.7362 13.3047 28.7278 13.2488 28.7111 13.2059C28.6943 13.164 28.6859 13.1044 28.6859 13.0261H28.7418C28.7819 13.1034 28.8117 13.1631 28.8303 13.2031C28.8489 13.2432 28.8815 13.2991 28.9291 13.3699L31.9466 17.7523H33.0991H33.0972Z" fill="#004EA8"/>
<path d="M41.3569 14.8568H45.7495V17.7523H47.4274V10.7119H45.7495V13.3652H41.3569V10.7119H39.6846V17.7523H41.3569V14.8568Z" fill="#004EA8"/>
<path d="M49.9448 16.9609C50.8699 17.5897 52.0177 17.9037 53.3891 17.9037C54.7604 17.9037 55.9203 17.5897 56.8585 16.9609C57.7966 16.3329 58.2662 15.4069 58.2662 14.1836C58.2662 12.9604 57.7976 12.1135 56.8613 11.4921C55.925 10.8707 54.7688 10.5596 53.3937 10.5596C52.0186 10.5596 50.869 10.8707 49.9439 11.4921C49.0187 12.1135 48.5566 13.0107 48.5566 14.1836C48.5566 15.3566 49.0187 16.3329 49.9439 16.9609H49.9448ZM50.3063 14.1734C50.3063 13.4393 50.5941 12.8766 51.1708 12.4853C51.7475 12.094 52.4919 11.9021 53.4049 11.9086C54.3114 11.9123 55.0586 12.107 55.6464 12.4927C56.2343 12.8784 56.5287 13.4402 56.5287 14.1781V14.2284C56.5287 14.9932 56.2333 15.5792 55.6418 15.9873C55.0502 16.3954 54.3049 16.5957 53.4049 16.5891C52.4984 16.5854 51.7559 16.3832 51.1764 15.9798C50.5969 15.5774 50.3072 14.9914 50.3072 14.2237V14.1734H50.3063Z" fill="#004EA8"/>
<path d="M61.8441 9.52658C62.2046 9.73057 62.6228 9.8321 63.0979 9.8321C63.5729 9.8321 63.9893 9.73057 64.346 9.52937C64.7028 9.32724 64.9757 8.98912 65.1648 8.51407L64.1337 8.03902C64.0256 8.30169 63.8812 8.49451 63.6987 8.61746C63.517 8.74042 63.3158 8.80189 63.0969 8.80189C62.878 8.80189 62.6806 8.73855 62.4952 8.61187C62.3098 8.48519 62.1683 8.29424 62.0705 8.03809L61.0244 8.51314C61.2098 8.98446 61.4827 9.32258 61.8432 9.52658H61.8441Z" fill="#004EA8"/>
<path d="M64.8467 13.396C64.9482 13.3019 65.0181 13.219 65.0591 13.1482C65.1001 13.0773 65.1327 13.0131 65.1606 12.9562H65.1914C65.1979 13.014 65.1998 13.0792 65.1961 13.1537C65.1923 13.2283 65.1914 13.3084 65.1914 13.396V17.7523H66.8488V10.7119H64.9482L61.3493 15.0282C61.258 15.1223 61.1947 15.1968 61.1574 15.2509C61.1201 15.3049 61.0847 15.3655 61.0512 15.4325H61.026V10.7119H59.3584V17.7523H61.2692L64.8476 13.396H64.8467Z" fill="#004EA8"/>
<path d="M1.15723 27.9037H2.82486V22.3036H6.82718V27.9037H8.50041V20.8633H1.15723V27.9037Z" fill="#004EA8"/>
<path d="M17.2478 21.5126C16.7876 21.0794 16.0823 20.8633 15.133 20.8633H10.5996V27.9037H12.2728V25.9025H15.1134C16.0907 25.9025 16.8062 25.6733 17.259 25.215C17.7117 24.7566 17.9391 24.1436 17.9391 23.375C17.9391 22.5663 17.7089 21.9458 17.2487 21.5126H17.2478ZM15.9211 24.2899C15.6882 24.4985 15.3128 24.6029 14.7938 24.6029H12.2719V22.2225H14.7938C15.3128 22.2263 15.6882 22.325 15.9211 22.5207C16.154 22.7163 16.2696 23.0079 16.2696 23.3955C16.2696 23.783 16.1531 24.0812 15.9211 24.2899Z" fill="#004EA8"/>
<path d="M26.6669 21.6445C25.7306 21.0231 24.5745 20.7119 23.1994 20.7119C21.8243 20.7119 20.6746 21.0231 19.7495 21.6445C18.8244 22.2659 18.3623 23.1631 18.3623 24.336C18.3623 25.5089 18.8244 26.4853 19.7495 27.1132C20.6746 27.7421 21.8224 28.056 23.1938 28.056C24.5652 28.056 25.7251 27.7421 26.6632 27.1132C27.6014 26.4853 28.0709 25.5592 28.0709 24.336C28.0709 23.1127 27.6023 22.2659 26.666 21.6445H26.6669ZM26.3334 24.3816C26.3334 25.1465 26.0381 25.7325 25.4465 26.1406C24.8549 26.5486 24.1096 26.7489 23.2096 26.7424C22.3031 26.7387 21.5606 26.5365 20.9811 26.1331C20.4017 25.7307 20.1119 25.1447 20.1119 24.377V24.3267C20.1119 23.5925 20.3998 23.0298 20.9765 22.6385C21.5532 22.2473 22.2976 22.0553 23.2106 22.0619C24.117 22.0656 24.8642 22.2603 25.4521 22.646C26.0399 23.0317 26.3343 23.5935 26.3343 24.3313V24.3816H26.3334Z" fill="#004EA8"/>
<path d="M34.6482 25.5392C34.5913 25.6202 34.5503 25.6799 34.5271 25.719C34.5038 25.7581 34.4814 25.801 34.4609 25.8476H34.4507C34.4274 25.8 34.4041 25.7572 34.3826 25.719C34.3603 25.6799 34.3212 25.6202 34.2643 25.5392L31.0753 20.8642H29.1543V27.9046H30.6906L30.6757 23.5278C30.6757 23.457 30.6673 23.4011 30.6505 23.3582C30.6337 23.3163 30.6254 23.2567 30.6254 23.1784H30.6813C30.7213 23.2557 30.7511 23.3154 30.7698 23.3554C30.7884 23.3955 30.821 23.4514 30.8685 23.5222L33.8861 27.9046H35.0385L37.9247 23.6181C37.962 23.5613 37.9918 23.5073 38.016 23.456C38.0393 23.4057 38.0682 23.3498 38.1018 23.2893H38.1623C38.1623 23.3536 38.153 23.4085 38.1344 23.456C38.1157 23.5035 38.1064 23.5585 38.1064 23.6228L38.0962 27.9037H39.7489V20.8633H37.7934L34.6491 25.5382L34.6482 25.5392Z" fill="#004EA8"/>
<path d="M50.7086 20.8584H49V27.8988H50.7086V20.8584Z" fill="#004EA8"/>
<path d="M45.5309 22.9455H42.9987V20.8633H41.3311V27.9037H45.556C46.4662 27.9037 47.137 27.6913 47.5702 27.2664C48.0035 26.8416 48.2196 26.2323 48.2196 25.4367C48.2196 24.6411 48.0053 24.0784 47.5777 23.6247C47.1501 23.1719 46.4672 22.9446 45.5309 22.9446V22.9455ZM46.2464 26.2836C46.0424 26.4606 45.7163 26.5491 45.2682 26.5491H42.9987V24.3103H45.2728C45.7172 24.3103 46.0414 24.4119 46.2455 24.6131C46.4495 24.8153 46.551 25.0901 46.551 25.4367C46.551 25.8243 46.4495 26.1065 46.2455 26.2836H46.2464Z" fill="#004EA8"/>
<path d="M61.5293 26.4634H58.8304V20.8633H57.1525V26.4634H54.4489V20.8633H52.7812V27.9037H63.2026V20.8633H61.5293V26.4634Z" fill="#004EA8"/>
<path d="M65.9177 24.7659C65.8739 25.3957 65.7798 25.8084 65.6344 26.0041C65.4891 26.1997 65.2739 26.2975 64.9879 26.2975C64.8901 26.2975 64.8071 26.2929 64.7382 26.2845C64.6693 26.2761 64.5938 26.2603 64.5137 26.236V27.9288C64.6078 27.9559 64.7177 27.9773 64.8425 27.9922C64.9674 28.0071 65.1174 28.0145 65.2925 28.0145C66.0341 28.0145 66.5596 27.7462 66.8698 27.2087C67.18 26.6711 67.3636 25.9547 67.4204 25.0585L67.6179 22.2989H70.8423V27.9037H72.5155V20.8633H66.1627L65.9204 24.765L65.9177 24.7659Z" fill="#004EA8"/>
<path d="M76.214 24.9672H80.6262V23.6834H76.214V22.2784H81.1162V20.8633H74.6162V27.9037H81.1917V26.5239H76.214V24.9672Z" fill="#004EA8"/>
<path d="M88.6275 23.5166H84.2348V20.8633H82.5625V27.9037H84.2348V25.0072H88.6275V27.9037H90.3054V20.8633H88.6275V23.5166Z" fill="#004EA8"/>
<path d="M98.1421 23.5166H93.7494V20.8633H92.0771V27.9037H93.7494V25.0072H98.1421V27.9037H99.82V20.8633H98.1421V23.5166Z" fill="#004EA8"/>
<path d="M109.252 21.6445C108.316 21.0231 107.159 20.7119 105.784 20.7119C104.409 20.7119 103.26 21.0231 102.334 21.6445C101.409 22.2659 100.947 23.1631 100.947 24.336C100.947 25.5089 101.409 26.4853 102.334 27.1132C103.26 27.7421 104.407 28.056 105.779 28.056C107.15 28.056 108.31 27.7421 109.248 27.1132C110.186 26.4853 110.656 25.5592 110.656 24.336C110.656 23.1127 110.187 22.2659 109.251 21.6445H109.252ZM108.918 24.3816C108.918 25.1465 108.623 25.7325 108.031 26.1406C107.44 26.5486 106.695 26.7489 105.795 26.7424C104.888 26.7387 104.146 26.5365 103.566 26.1331C102.987 25.7307 102.697 25.1447 102.697 24.377V24.3267C102.697 23.5925 102.985 23.0298 103.561 22.6385C104.138 22.2473 104.883 22.0553 105.796 22.0619C106.702 22.0656 107.449 22.2603 108.037 22.646C108.625 23.0317 108.919 23.5935 108.919 24.3313V24.3816H108.918Z" fill="#004EA8"/>
<path d="M113.688 22.7084C114.228 22.2668 114.988 22.046 115.965 22.046C116.787 22.046 117.395 22.1904 117.789 22.4783C118.183 22.7662 118.473 23.0923 118.658 23.4565L118.688 23.6084H120.376L120.351 23.4211C120.082 22.4643 119.618 21.7731 118.961 21.3492C118.304 20.9243 117.295 20.7119 115.933 20.7119C114.571 20.7119 113.36 21.0184 112.458 21.6314C111.556 22.2445 111.106 23.1565 111.106 24.3658V24.4012C111.106 25.5937 111.556 26.5011 112.454 27.1225C113.352 27.7439 114.513 28.0551 115.939 28.0551C117.364 28.0551 118.413 27.839 119.138 27.4057C119.863 26.9725 120.27 26.2915 120.361 25.3617L120.376 25.1801H118.698L118.678 25.3468C118.611 25.7008 118.372 26.0204 117.962 26.3073C117.553 26.5933 116.888 26.7368 115.969 26.7368C115.049 26.7368 114.261 26.5579 113.707 26.2011C113.152 25.8443 112.875 25.2471 112.875 24.4124V24.3462C112.875 23.696 113.145 23.15 113.686 22.7084H113.688Z" fill="#004EA8"/>
<path d="M120.495 22.298H123.584V27.9037H125.282V22.298H128.369V20.8633H120.495V22.298Z" fill="#004EA8"/>
<path d="M134.909 20.8633L131.31 25.1796C131.219 25.2737 131.156 25.3482 131.118 25.4022C131.081 25.4563 131.046 25.5168 131.012 25.5839H130.987V20.8633H129.319V27.9037H131.23L134.809 23.5473C134.91 23.4532 134.98 23.3703 135.021 23.2995C135.061 23.2287 135.095 23.1644 135.123 23.1076H135.152C135.159 23.1654 135.161 23.2306 135.157 23.3051C135.153 23.3796 135.152 23.4598 135.152 23.5473V27.9037H136.811V20.8633H134.91H134.909Z" fill="#004EA8"/>
<path d="M4.24534 0.601562C5.38568 0.601562 6.26037 0.77974 6.86941 1.13609C7.47845 1.49245 7.78297 1.99458 7.78297 2.6425C7.78297 3.21915 7.51085 3.65973 6.96659 3.96425C6.42234 4.26877 5.66428 4.40807 4.69241 4.38216V4.17806C5.75499 4.10679 6.57785 4.23314 7.16097 4.5571C7.7441 4.87457 8.03566 5.36375 8.03566 6.02463C8.03566 6.7179 7.70846 7.25243 7.05406 7.62822C6.40615 7.99753 5.46991 8.18219 4.24534 8.18219C3.02078 8.18219 2.0813 7.99753 1.42691 7.62822C0.77251 7.25243 0.445312 6.7179 0.445312 6.02463C0.445312 5.36375 0.736875 4.87457 1.32 4.5571C1.9096 4.23314 2.73246 4.10679 3.78856 4.17806V4.38216C2.82317 4.40807 2.0651 4.26877 1.51438 3.96425C0.970125 3.65973 0.698 3.21915 0.698 2.6425C0.698 1.99458 1.00252 1.49245 1.61156 1.13609C2.22708 0.77974 3.10501 0.601562 4.24534 0.601562ZM4.24534 6.89932C4.93862 6.89932 5.46667 6.81509 5.8295 6.64663C6.19233 6.47817 6.37375 6.22872 6.37375 5.89828C6.37375 5.56137 6.19233 5.31516 5.8295 5.15966C5.46667 4.99768 4.93862 4.91669 4.24534 4.91669C3.55207 4.91669 3.02078 4.99768 2.65147 5.15966C2.28864 5.31516 2.10722 5.56137 2.10722 5.89828C2.10722 6.22872 2.28864 6.47817 2.65147 6.64663C3.02078 6.81509 3.55207 6.89932 4.24534 6.89932ZM4.24534 3.71156C4.64705 3.71156 4.99045 3.67917 5.27553 3.61438C5.56062 3.54958 5.77443 3.44916 5.91697 3.31309C6.06599 3.17055 6.1405 2.99886 6.1405 2.798C6.1405 2.49996 5.97528 2.27319 5.64485 2.11769C5.32089 1.96219 4.85439 1.88444 4.24534 1.88444C3.6363 1.88444 3.16656 1.96219 2.83613 2.11769C2.50569 2.27319 2.34047 2.49996 2.34047 2.798C2.34047 2.99886 2.41174 3.17055 2.55428 3.31309C2.7033 3.44916 2.92035 3.54958 3.20544 3.61438C3.49052 3.67917 3.83716 3.71156 4.24534 3.71156Z" fill="#004EA8"/>
</g>
<defs>
<clipPath id="clip0_266_799">
<rect width="138.305" height="38.568" fill="white" transform="translate(0 0.560547)"/>
</clipPath>
</defs>
</svg>
