<svg width="185" height="52" viewBox="0 0 185 52" fill="none" xmlns="http://www.w3.org/2000/svg">
<g clip-path="url(#clip0_266_124)">
<path d="M30.811 9.56692C31.803 9.56692 32.5058 9.20802 32.9208 8.48897C33.3358 7.76993 33.5813 6.81162 33.6573 5.61279L33.9215 1.92161H38.2345V9.41862H40.4726V0H31.9749L31.6509 5.219C31.5924 6.06142 31.4665 6.61347 31.2721 6.87517C31.0777 7.13687 30.7898 7.26772 30.4073 7.26772C30.2764 7.26772 30.1655 7.26149 30.0733 7.25027C29.9811 7.23906 29.8801 7.21787 29.7729 7.18547V9.44978C29.8988 9.48592 30.0459 9.51458 30.2128 9.53452C30.3798 9.55446 30.5805 9.56443 30.8148 9.56443L30.811 9.56692Z" fill="white"/>
<path d="M50.9738 7.57178H44.3142V5.48942H50.2161V3.77218H44.3142V1.89295H50.8716V0H42.1782V9.41738H50.9738V7.57178Z" fill="white"/>
<path d="M55.8425 9.41738H58.1143V1.92036H62.2441V0H51.7114V1.92036H55.8425V9.41738Z" fill="white"/>
<path d="M5.02817 13.5584L-0.0761719 22.9958H2.34391L3.38198 20.967H8.9038L9.93688 22.9958H12.5264L7.37473 13.5584H5.02817ZM4.25305 19.2647L5.76467 16.31C5.85439 16.1517 5.92542 16.0246 5.97776 15.9287C6.0301 15.8315 6.08494 15.7243 6.14351 15.6072H6.16344C6.22201 15.7193 6.27685 15.8252 6.32919 15.9249C6.38152 16.0246 6.45007 16.1542 6.53481 16.3175L8.0352 19.2647H4.25181H4.25305Z" fill="white"/>
<path d="M17.4239 22.9957V15.4987H21.5537V13.5784H11.021V15.4987H15.1521V22.9957H17.4239Z" fill="white"/>
<path d="M28.4379 13.3752C26.5986 13.3752 25.0608 13.7915 23.8233 14.6227C22.5859 15.4539 21.9678 16.6539 21.9678 18.2229C21.9678 19.7918 22.5859 21.0978 23.8233 21.9377C25.0608 22.7789 26.5961 23.1989 28.4305 23.1989C30.2648 23.1989 31.8163 22.7789 33.0712 21.9377C34.3261 21.0978 34.9542 19.8591 34.9542 18.2229C34.9542 16.5866 34.3274 15.4539 33.075 14.6227C31.8226 13.7915 30.2761 13.3752 28.4367 13.3752H28.4379ZM32.6301 18.2839C32.6301 19.3071 32.2351 20.0909 31.4437 20.6367C30.6524 21.1826 29.6555 21.4505 28.4516 21.4418C27.2391 21.4368 26.2459 21.1664 25.4708 20.6268C24.6957 20.0884 24.3081 19.3046 24.3081 18.2777V18.2104C24.3081 17.2284 24.6932 16.4757 25.4646 15.9523C26.2359 15.4289 27.2316 15.1722 28.4529 15.181C29.6654 15.1859 30.6649 15.4464 31.4512 15.9623C32.2375 16.4782 32.6313 17.2297 32.6313 18.2166V18.2839H32.6301Z" fill="white"/>
<path d="M18.4702 0C16.6308 0 15.093 0.416223 13.8556 1.24742C12.6181 2.07863 12 3.2787 12 4.84764C12 6.41658 12.6181 7.72257 13.8556 8.5625C15.093 9.40367 16.6283 9.82363 18.4627 9.82363C20.2971 9.82363 21.8486 9.40367 23.1035 8.5625C24.3584 7.72257 24.9864 6.48387 24.9864 4.84764C24.9864 3.2114 24.3596 2.07863 23.1072 1.24742C21.8548 0.416223 20.3083 0 18.4689 0H18.4702ZM22.6623 4.9087C22.6623 5.93181 22.2673 6.71566 21.476 7.26149C20.6846 7.80731 19.6877 8.07524 18.4839 8.06652C17.2713 8.06153 16.2781 7.79111 15.503 7.25152C14.7279 6.71317 14.3403 5.92932 14.3403 4.90247V4.83518C14.3403 3.85319 14.7254 3.10049 15.4968 2.5771C16.2682 2.0537 17.2639 1.79699 18.4851 1.80571C19.6977 1.8107 20.6971 2.07115 21.4834 2.58707C22.2698 3.10299 22.6636 3.85443 22.6636 4.84141V4.9087H22.6623Z" fill="white"/>
<path d="M44.2727 22.9957L48.1333 17.2621C48.1832 17.1861 48.2231 17.1138 48.2555 17.0452C48.2866 16.9779 48.3252 16.9032 48.3701 16.8222H48.4511C48.4511 16.9082 48.4386 16.9817 48.4137 17.0452C48.3888 17.1088 48.3763 17.1823 48.3763 17.2683L48.3626 22.9945H50.5733V13.5784H47.9576L43.753 19.8317C43.6757 19.9401 43.6222 20.0199 43.591 20.0722C43.5599 20.1245 43.5299 20.1819 43.5025 20.2442H43.4888C43.4577 20.1806 43.4265 20.1233 43.3979 20.0722C43.3679 20.0199 43.3156 19.9401 43.2396 19.8317L38.9739 13.5784H36.4043V22.9957H38.4592L38.4393 17.1412C38.4393 17.0465 38.4281 16.9717 38.4057 16.9144C38.3832 16.8583 38.372 16.7786 38.372 16.6739H38.4468C38.5004 16.7773 38.5402 16.8571 38.5652 16.9107C38.5901 16.9642 38.6337 17.039 38.6973 17.1337L42.7336 22.9957H44.2752H44.2727Z" fill="white"/>
<path d="M55.3204 19.1226H61.1961V22.9957H63.4405V13.5784H61.1961V17.1275H55.3204V13.5784H53.0835V22.9957H55.3204V19.1226Z" fill="white"/>
<path d="M66.8051 21.9377C68.0425 22.7789 69.5778 23.1989 71.4122 23.1989C73.2466 23.1989 74.7981 22.7789 76.053 21.9377C77.3079 21.0978 77.9359 19.8591 77.9359 18.2229C77.9359 16.5866 77.3091 15.4539 76.0567 14.6227C74.8043 13.7915 73.2578 13.3752 71.4184 13.3752C69.579 13.3752 68.0413 13.7915 66.8038 14.6227C65.5663 15.4539 64.9482 16.6539 64.9482 18.2229C64.9482 19.7918 65.5663 21.0978 66.8038 21.9377H66.8051ZM67.2886 18.2092C67.2886 17.2272 67.6736 16.4745 68.445 15.9511C69.2164 15.4277 70.2121 15.171 71.4334 15.1797C72.6459 15.1847 73.6453 15.4451 74.4317 15.9611C75.218 16.477 75.6118 17.2284 75.6118 18.2154V18.2827C75.6118 19.3058 75.2168 20.0897 74.4254 20.6355C73.6341 21.1813 72.6372 21.4492 71.4334 21.4405C70.2208 21.4355 69.2276 21.1651 68.4525 20.6255C67.6774 20.0872 67.2898 19.3033 67.2898 18.2765V18.2092H67.2886Z" fill="white"/>
<path d="M82.725 11.9932C83.2073 12.2661 83.7669 12.402 84.4024 12.402C85.038 12.402 85.595 12.2661 86.0723 11.997C86.5496 11.7265 86.9147 11.2742 87.1677 10.6386L85.7882 10.0031C85.6436 10.3545 85.4504 10.6125 85.2062 10.777C84.9632 10.9415 84.694 11.0237 84.4012 11.0237C84.1083 11.0237 83.8441 10.939 83.5961 10.7695C83.3481 10.6 83.1587 10.3445 83.0279 10.0018L81.6284 10.6374C81.8764 11.2679 82.2415 11.7203 82.7238 11.9932H82.725Z" fill="white"/>
<path d="M86.7402 17.1686C86.876 17.0427 86.9695 16.9318 87.0243 16.8371C87.0791 16.7424 87.1227 16.6564 87.1601 16.5804H87.2013C87.21 16.6577 87.2125 16.7449 87.2075 16.8446C87.2025 16.9443 87.2013 17.0515 87.2013 17.1686V22.9957H89.4182V13.5784H86.876L82.062 19.3519C81.9399 19.4778 81.8551 19.5775 81.8053 19.6498C81.7554 19.722 81.7081 19.803 81.6632 19.8928H81.6296V13.5784H79.3989V22.9957H81.9548L86.7414 17.1686H86.7402Z" fill="white"/>
<path d="M1.54785 36.5754H3.77852V29.0846H9.1321V36.5754H11.3702V27.158H1.54785V36.5754Z" fill="white"/>
<path d="M23.0705 28.0266C22.4549 27.4471 21.5115 27.158 20.2416 27.158H14.1777V36.5754H16.4159V33.8986H20.2155C21.5227 33.8986 22.4798 33.592 23.0854 32.9789C23.6911 32.3658 23.9951 31.5458 23.9951 30.5177C23.9951 29.436 23.6873 28.606 23.0717 28.0266H23.0705ZM21.2959 31.7414C20.9844 32.0206 20.4822 32.1601 19.788 32.1601H16.4146V28.9762H19.788C20.4822 28.9811 20.9844 29.1132 21.2959 29.3749C21.6075 29.6366 21.762 30.0267 21.762 30.5451C21.762 31.0635 21.6062 31.4623 21.2959 31.7414Z" fill="white"/>
<path d="M35.6705 28.2023C34.418 27.3711 32.8715 26.9549 31.0322 26.9549C29.1928 26.9549 27.655 27.3711 26.4176 28.2023C25.1801 29.0335 24.562 30.2336 24.562 31.8025C24.562 33.3714 25.1801 34.6774 26.4176 35.5174C27.655 36.3585 29.1903 36.7785 31.0247 36.7785C32.8591 36.7785 34.4106 36.3585 35.6655 35.5174C36.9204 34.6774 37.5484 33.4387 37.5484 31.8025C37.5484 30.1663 36.9216 29.0335 35.6692 28.2023H35.6705ZM35.2243 31.8636C35.2243 32.8867 34.8293 33.6705 34.038 34.2164C33.2466 34.7622 32.2497 35.0301 31.0459 35.0214C29.8334 35.0164 28.8401 34.746 28.065 34.2064C27.2899 33.668 26.9023 32.8842 26.9023 31.8573V31.79C26.9023 30.8081 27.2874 30.0554 28.0588 29.532C28.8302 29.0086 29.8259 28.7519 31.0471 28.7606C32.2597 28.7656 33.2591 29.026 34.0454 29.5419C34.8318 30.0579 35.2256 30.8093 35.2256 31.7963V31.8636H35.2243Z" fill="white"/>
<path d="M46.3463 33.4113C46.2703 33.5197 46.2154 33.5995 46.1843 33.6518C46.1531 33.7042 46.1232 33.7615 46.0958 33.8238H46.0821C46.0509 33.7603 46.0198 33.7029 45.9911 33.6518C45.9612 33.5995 45.9089 33.5197 45.8329 33.4113L41.5672 27.158H38.9976V36.5754H41.0525L41.0326 30.7208C41.0326 30.6261 41.0214 30.5513 40.9989 30.494C40.9765 30.4379 40.9653 30.3582 40.9653 30.2535H41.04C41.0936 30.3569 41.1335 30.4367 41.1584 30.4903C41.1834 30.5439 41.227 30.6186 41.2905 30.7133L45.3269 36.5754H46.8684L50.7291 30.8417C50.7789 30.7657 50.8188 30.6934 50.8512 30.6249C50.8824 30.5576 50.921 30.4828 50.9659 30.4018H51.0469C51.0469 30.4878 51.0344 30.5613 51.0095 30.6249C50.9846 30.6884 50.9721 30.7619 50.9721 30.8479L50.9584 36.5741H53.1691V27.1568H50.5534L46.3475 33.4101L46.3463 33.4113Z" fill="white"/>
<path d="M67.828 27.1505H65.5425V36.5679H67.828V27.1505Z" fill="white"/>
<path d="M60.9044 29.9432H57.5173V27.158H55.2866V36.5754H60.938C62.1556 36.5754 63.0528 36.2912 63.6323 35.723C64.2118 35.1547 64.5009 34.3397 64.5009 33.2755C64.5009 32.2112 64.2142 31.4585 63.6422 30.8517C63.0702 30.246 62.1568 29.9419 60.9044 29.9419V29.9432ZM61.8615 34.4082C61.5886 34.645 61.1524 34.7634 60.553 34.7634H57.5173V31.7688H60.5592C61.1536 31.7688 61.5873 31.9047 61.8602 32.1738C62.1331 32.4443 62.269 32.8119 62.269 33.2755C62.269 33.7939 62.1331 34.1715 61.8602 34.4082H61.8615Z" fill="white"/>
<path d="M82.3027 34.6488H78.6925V27.158H76.4481V34.6488H72.8317V27.158H70.6011V36.5754H84.5408V27.158H82.3027V34.6488Z" fill="white"/>
<path d="M88.1734 32.377C88.1148 33.2194 87.989 33.7715 87.7946 34.0332C87.6002 34.2949 87.3123 34.4257 86.9297 34.4257C86.7989 34.4257 86.688 34.4195 86.5957 34.4083C86.5035 34.3971 86.4026 34.3759 86.2954 34.3435V36.6078C86.4213 36.6439 86.5683 36.6726 86.7353 36.6925C86.9023 36.7125 87.1029 36.7224 87.3372 36.7224C88.3292 36.7224 89.032 36.3635 89.447 35.6445C89.862 34.9254 90.1075 33.9671 90.1835 32.7683L90.4477 29.0771H94.7607V36.5741H96.9988V27.1568H88.5011L88.1771 32.3758L88.1734 32.377Z" fill="white"/>
<path d="M101.946 32.6474H107.848V30.9302H101.946V29.0509H108.504V27.158H99.8091V36.5754H108.605V34.7298H101.946V32.6474Z" fill="white"/>
<path d="M118.552 30.7071H112.676V27.158H110.439V36.5754H112.676V32.701H118.552V36.5754H120.796V27.158H118.552V30.7071Z" fill="white"/>
<path d="M131.276 30.7071H125.4V27.158H123.164V36.5754H125.4V32.701H131.276V36.5754H133.521V27.158H131.276V30.7071Z" fill="white"/>
<path d="M146.137 28.2023C144.884 27.3711 143.338 26.9549 141.498 26.9549C139.659 26.9549 138.121 27.3711 136.884 28.2023C135.646 29.0335 135.028 30.2336 135.028 31.8025C135.028 33.3714 135.646 34.6774 136.884 35.5174C138.121 36.3585 139.657 36.7785 141.491 36.7785C143.325 36.7785 144.877 36.3585 146.132 35.5174C147.387 34.6774 148.015 33.4387 148.015 31.8025C148.015 30.1663 147.388 29.0335 146.136 28.2023H146.137ZM145.691 31.8636C145.691 32.8867 145.296 33.6705 144.504 34.2164C143.713 34.7622 142.716 35.0301 141.512 35.0214C140.3 35.0164 139.306 34.746 138.531 34.2064C137.756 33.668 137.369 32.8842 137.369 31.8573V31.79C137.369 30.8081 137.754 30.0554 138.525 29.532C139.296 29.0086 140.292 28.7519 141.513 28.7606C142.726 28.7656 143.725 29.026 144.512 29.5419C145.298 30.0579 145.692 30.8093 145.692 31.7963V31.8636H145.691Z" fill="white"/>
<path d="M152.071 29.6254C152.794 29.0347 153.81 28.7394 155.117 28.7394C156.216 28.7394 157.03 28.9325 157.557 29.3176C158.084 29.7027 158.472 30.1389 158.72 30.6261L158.76 30.8292H161.018L160.984 30.5788C160.624 29.2989 160.003 28.3743 159.125 27.8073C158.246 27.239 156.897 26.9549 155.075 26.9549C153.253 26.9549 151.633 27.3649 150.426 28.1848C149.22 29.0048 148.618 30.2248 148.618 31.8424V31.8897C148.618 33.4848 149.219 34.6986 150.42 35.5298C151.621 36.361 153.175 36.7772 155.082 36.7772C156.989 36.7772 158.392 36.4881 159.361 35.9087C160.331 35.3292 160.876 34.4182 160.998 33.1745L161.018 32.9315H158.773L158.746 33.1546C158.656 33.6282 158.337 34.0556 157.789 34.4394C157.242 34.822 156.352 35.0139 155.122 35.0139C153.892 35.0139 152.838 34.7746 152.096 34.2974C151.355 33.8201 150.983 33.0213 150.983 31.9047V31.8162C150.983 30.9464 151.345 30.2161 152.069 29.6254H152.071Z" fill="white"/>
<path d="M161.176 29.0771H165.307V36.5754H167.579V29.0771H171.708V27.158H161.176V29.0771Z" fill="white"/>
<path d="M180.458 27.158L175.644 32.9315C175.522 33.0574 175.437 33.1571 175.387 33.2294C175.337 33.3016 175.29 33.3826 175.245 33.4724H175.212V27.158H172.981V36.5754H175.537L180.323 30.7482C180.459 30.6224 180.553 30.5114 180.608 30.4167C180.661 30.322 180.706 30.236 180.743 30.16H180.783C180.792 30.2373 180.795 30.3245 180.79 30.4242C180.785 30.5239 180.783 30.6311 180.783 30.7482V36.5754H183.001V27.158H180.459H180.458Z" fill="white"/>
<path d="M5.68114 0.0549927C7.20648 0.0549927 8.37648 0.293326 9.19114 0.769993C10.0058 1.24666 10.4131 1.91833 10.4131 2.78499C10.4131 3.55633 10.0491 4.14566 9.32114 4.55299C8.59314 4.96033 7.57914 5.14666 6.27914 5.11199V4.83899C7.70048 4.74366 8.80114 4.91266 9.58115 5.34599C10.3611 5.77066 10.7511 6.42499 10.7511 7.30899C10.7511 8.23633 10.3135 8.95133 9.43814 9.45399C8.57148 9.94799 7.31915 10.195 5.68114 10.195C4.04314 10.195 2.78648 9.94799 1.91114 9.45399C1.03581 8.95133 0.598145 8.23633 0.598145 7.30899C0.598145 6.42499 0.988145 5.77066 1.76814 5.34599C2.55681 4.91266 3.65748 4.74366 5.07014 4.83899V5.11199C3.77881 5.14666 2.76481 4.96033 2.02814 4.55299C1.30014 4.14566 0.936145 3.55633 0.936145 2.78499C0.936145 1.91833 1.34348 1.24666 2.15814 0.769993C2.98148 0.293326 4.15581 0.0549927 5.68114 0.0549927ZM5.68114 8.47899C6.60848 8.47899 7.31481 8.36633 7.80014 8.14099C8.28548 7.91566 8.52814 7.58199 8.52814 7.13999C8.52814 6.68933 8.28548 6.35999 7.80014 6.15199C7.31481 5.93533 6.60848 5.82699 5.68114 5.82699C4.75381 5.82699 4.04314 5.93533 3.54914 6.15199C3.06381 6.35999 2.82114 6.68933 2.82114 7.13999C2.82114 7.58199 3.06381 7.91566 3.54914 8.14099C4.04314 8.36633 4.75381 8.47899 5.68114 8.47899ZM5.68114 4.21499C6.21848 4.21499 6.67781 4.17166 7.05914 4.08499C7.44048 3.99833 7.72648 3.86399 7.91714 3.68199C8.11648 3.49133 8.21615 3.26166 8.21615 2.99299C8.21615 2.59433 7.99514 2.29099 7.55314 2.08299C7.11981 1.87499 6.49581 1.77099 5.68114 1.77099C4.86648 1.77099 4.23814 1.87499 3.79614 2.08299C3.35414 2.29099 3.13314 2.59433 3.13314 2.99299C3.13314 3.26166 3.22848 3.49133 3.41914 3.68199C3.61848 3.86399 3.90881 3.99833 4.29014 4.08499C4.67148 4.17166 5.13514 4.21499 5.68114 4.21499Z" fill="white"/>
</g>
<defs>
<clipPath id="clip0_266_124">
<rect width="185" height="51.5893" fill="white"/>
</clipPath>
</defs>
</svg>
