<svg width="142" height="32" viewBox="0 0 142 32" fill="none" xmlns="http://www.w3.org/2000/svg">
<g clip-path="url(#clip0_135_2613)">
<path d="M41.5706 1.8216V0.556152H32.8037V1.8216H37.0121L30.6506 24.046L24.5085 1.8216H28.2921V0.556152H17.1862V1.8216H20.6498L14.2876 24.046L8.1449 1.8216H11.9292V0.556152H0.866211V1.8216H3.65476L11.9198 31.746H13.2993L21.0389 4.83496L21.2389 3.85406L28.2841 31.746H29.6669L38.2728 1.8216H41.5706ZM44.7255 8.10821C44.7195 8.10821 44.7182 8.10821 44.7182 8.10821C44.7115 8.10821 44.7094 8.10821 44.7014 8.10821C40.2012 8.10821 37.5629 10.8923 37.5468 16.0501H37.5428V20.4415H37.5468C37.573 25.5906 40.2032 28.3688 44.7014 28.3688C44.7094 28.3688 44.7114 28.3654 44.7161 28.3654C44.7161 28.3654 44.7195 28.3688 44.7255 28.3688C49.2237 28.3688 51.8539 25.5906 51.8801 20.4415H51.8861V16.0501H51.8801C51.8633 10.8923 49.2277 8.10821 44.7255 8.10821ZM48.3723 22.6866C48.3723 26.9321 47.1652 27.5638 44.7014 27.5638H44.6974C42.2517 27.5638 41.0359 26.9361 41.0097 22.7859V13.7778C41.0278 9.6049 42.2517 8.97917 44.6974 8.97917H44.7014C47.1652 8.97917 48.3723 9.61023 48.3723 13.8557C48.3723 13.8617 48.3696 13.8617 48.3696 13.8671V22.6752C48.3689 22.6792 48.3723 22.6819 48.3723 22.6866ZM85.3843 7.72904H84.2846L78.1667 27.1386H76.2511V27.9823H81.9792V27.1386H79.2221L81.0901 21.2245H86.3089L87.9474 27.1386H85.7722V27.9823H92.7033V27.1386H90.8279L85.3843 7.72904ZM81.3337 20.4409L83.7626 12.7369H83.9552L86.0895 20.4409H81.3337ZM73.1888 27.1353L73.2029 8.9885H75.0943V8.15153H69.7776L69.7729 8.15819H69.7702L64.1293 23.896L58.7824 8.15153L58.771 8.15419V8.15153H53.4985V8.9965H55.3624L55.3598 27.1393H53.6112V27.9829H59.1581V27.1393H56.5413V9.93209L62.8156 28.5853H63.6872L70.2882 10.124L70.26 27.1386H68.2209V27.9823H75.303V27.1386C75.303 27.1386 74.3127 27.1353 73.1707 27.1386C73.3364 25.0122 73.1888 27.1353 73.1888 27.1353ZM103.509 8.9885H106.36V22.0948L98.0469 8.17885L98.0429 8.15153H93.1971V8.9885H94.9175V27.1446H93.1971V27.9829H98.6836V27.1446H95.7951V10.7191L106.35 28.4048L106.359 28.3694V28.4088H107.234V8.9885H109.11V8.15153H103.509V8.9885H103.509ZM111.255 22.498C110.202 22.498 109.349 23.4429 109.349 24.6131C109.349 25.7799 110.202 26.7261 111.255 26.7261C112.306 26.7261 113.163 25.7799 113.163 24.6131C113.163 23.4429 112.306 22.498 111.255 22.498ZM124.992 11.8159C124.96 11.7766 124.936 11.7393 124.906 11.7047C124.904 11.7007 124.898 11.696 124.893 11.6907C124.795 11.576 124.69 11.4854 124.578 11.4228C124.313 11.2582 123.939 11.1149 123.39 11.1149C121.952 11.1149 121.28 11.8166 120.647 12.7789C120.236 13.4046 119.802 14.2322 119.549 14.7367C119.535 14.4728 119.465 13.933 119.152 13.1067C118.736 11.9919 118.341 11.6 118.279 11.5474V11.5301H114.88V12.367H117.032V25.4674H114.88V26.3037H122.61V25.4674H119.556V16.4046C119.888 15.5956 120.397 14.5381 121.155 13.4099C121.927 12.4437 122.325 12.1618 122.767 12.1618C122.963 12.1618 122.967 13.0361 122.958 13.4759C122.956 13.5412 122.954 13.6065 122.948 13.6738C122.948 13.7038 122.948 13.7264 122.948 13.7264V13.7238C122.948 13.7278 122.948 13.7351 122.948 13.7378C122.948 15.6463 123.521 16.1501 124.227 16.1501C124.929 16.1501 125.498 15.6883 125.498 13.7378C125.498 12.9681 125.304 12.2824 125.009 11.8419C125.007 11.8333 124.997 11.8239 124.992 11.8159ZM139.943 25.458C139.564 25.458 139.508 25.0682 139.508 25.0389V11.5294H136.978V22.6846C136.944 22.7439 135.298 25.8785 132.998 25.8785C131.813 25.8785 131.437 25.2534 131.437 24.5384V11.5374H126.681V12.371H128.905V23.2157C128.905 23.2157 128.802 26.7155 132.665 26.7155C135.253 26.7155 136.705 24.3765 136.978 23.9613V24.0333L136.98 24.0346C136.946 25.3801 137.41 26.2797 138.099 26.2903H141.641V25.4574H139.943V25.458Z" fill="white"/>
<path d="M46.7686 4.3945V1.99621C46.7686 1.88559 46.7774 1.52907 46.7928 1.33649C46.7612 1.45244 46.6995 1.61437 46.6532 1.70033L45.163 4.3945H44.7235V0.938663H45.1489V3.38227C45.1489 3.47823 45.1328 3.73012 45.1073 3.93137C45.1502 3.78943 45.2516 3.56886 45.314 3.45291L46.6841 0.93933H47.1913V4.3945H46.7686Z" fill="white"/>
<path d="M50.5549 4.3945V2.72256H49.062V4.3945H48.6393V0.938663H49.062V2.38404H50.5549V0.938663H50.9763V4.3945H50.5549Z" fill="white"/>
<path d="M54.2996 1.28851H53.3354V4.3945H52.912V1.28851H51.9606V0.938663H54.3257L54.2996 1.28851Z" fill="white"/>
<path d="M55.2712 4.3945V0.938663H57.2117L57.1533 1.29184H55.6933V2.41402H56.9165V2.76787H55.6933V4.04132H57.2607V4.3945H55.2712Z" fill="white"/>
<path d="M59.4198 0.938663C59.7459 0.938663 59.9653 0.955323 60.1954 1.10126C60.6007 1.35182 60.6504 1.72099 60.6504 1.92624C60.6504 2.18212 60.6007 2.50998 60.331 2.74588C60.0344 3.00843 59.6889 3.01976 59.4715 3.01976H58.8501V4.3945H58.4268V0.938663H59.4198ZM59.4446 2.68058C59.7868 2.68058 59.9109 2.59128 59.9982 2.49599C60.1062 2.38071 60.178 2.2441 60.178 1.99221C60.178 1.73432 60.1028 1.57039 59.9733 1.4591C59.8022 1.31317 59.5641 1.28851 59.2997 1.28851H58.8501V2.68058H59.4446Z" fill="white"/>
<path d="M63.6509 4.3945V2.72256H62.16V4.3945H61.736V0.938663H62.16V2.38404H63.6509V0.938663H64.0756V4.3945H63.6509Z" fill="white"/>
<path d="M65.5233 4.39453V0.93869H67.4624L67.4047 1.29187H65.9474V2.41405H67.1672V2.7679H65.9474V4.04135H67.5148V4.39453H65.5233Z" fill="white"/>
<path d="M70.4261 1.28854H69.4626V4.39453H69.0399V1.28854H68.0878V0.93869H70.4536L70.4261 1.28854Z" fill="white"/>
<path d="M75.2324 4.07091H75.596V5.3097H75.18V4.39476H73.0806V5.31037H72.6659V4.07091H72.8887C73.149 3.54847 73.2711 3.10932 73.3127 2.95272C73.455 2.42562 73.4999 1.92117 73.5207 1.4627L73.5469 0.938263H75.233V4.07091H75.2324ZM73.8736 1.73059C73.8609 1.90185 73.8106 2.57622 73.6569 3.12065C73.5563 3.45717 73.3879 3.855 73.2886 4.07157H74.8103V1.26212H73.9038L73.8736 1.73059Z" fill="white"/>
<path d="M77.4772 2.09376C77.4141 3.16596 77.3517 3.89565 77.0625 4.19285C76.9089 4.35278 76.7223 4.3881 76.5465 4.40809L76.3694 4.43075L76.2909 4.14221L76.3956 4.11089C76.4486 4.09689 76.5492 4.05558 76.6002 4.02959C76.9169 3.87499 77.0357 3.41252 77.1195 1.76457L77.1598 0.938263H78.858V4.39477H78.4346V1.26212H77.5228L77.4772 2.09376Z" fill="white"/>
<path d="M82.0865 4.3945V2.83384H81.5316C81.3511 2.83384 81.2431 2.89515 81.1807 2.95312C81.072 3.05508 81.0297 3.23167 81.0103 3.32163L80.9184 3.7741C80.8895 3.91004 80.858 4.09063 80.7613 4.21391C80.6889 4.29921 80.5701 4.37451 80.3366 4.39916L80.0488 4.43115L79.9696 4.14261L80.0729 4.11129C80.1206 4.09729 80.2333 4.05598 80.2789 4.02999C80.3574 3.99067 80.4004 3.94603 80.4467 3.78476L80.6003 3.22101C80.6426 3.06574 80.7003 2.93913 80.7828 2.85317C80.8432 2.78786 80.9472 2.70723 81.1042 2.67258V2.66192C80.9257 2.64126 80.766 2.57129 80.6567 2.48533C80.4722 2.33939 80.3655 2.11282 80.3655 1.87759C80.3655 1.62437 80.4755 1.32716 80.7137 1.15057C80.9472 0.980645 81.2102 0.938663 81.6115 0.938663H82.5106V4.3945H82.0865ZM81.6041 1.26186C81.4699 1.26186 81.2773 1.27785 81.1082 1.37314C80.9217 1.47776 80.8117 1.65036 80.8117 1.91224C80.8117 2.17413 80.9633 2.31473 81.0579 2.38137C81.2471 2.51132 81.4699 2.51132 81.6363 2.51132H82.0798V1.26186H81.6041Z" fill="white"/>
<path d="M89.5501 1.18587L89.3783 1.22786C89.3273 1.24185 89.2508 1.26784 89.2119 1.29716C89.1857 1.31782 89.1253 1.3678 89.0851 1.52373L88.9442 2.01685C88.91 2.14279 88.8764 2.24342 88.7905 2.35937C88.7174 2.45466 88.6389 2.51663 88.547 2.55595V2.56528C88.61 2.59193 88.6859 2.63058 88.7583 2.71721C88.8469 2.82383 88.8972 2.95311 88.9361 3.08572L89.1354 3.77942C89.1616 3.87138 89.171 3.96467 89.2998 4.02998C89.3474 4.05596 89.4615 4.09661 89.5091 4.11127L89.6138 4.14259L89.5353 4.43114L89.2468 4.39915C88.9965 4.37383 88.8858 4.29453 88.8207 4.2139C88.7261 4.09728 88.6993 3.94268 88.6657 3.77409L88.551 3.21566C88.5382 3.15969 88.4946 2.95311 88.3812 2.84849C88.3195 2.78851 88.2122 2.72654 88.0317 2.72654H87.6888V4.39448H87.2641V2.72654H86.9205C86.7407 2.72654 86.632 2.78785 86.5703 2.84849C86.4549 2.95311 86.4086 3.15902 86.4005 3.21566L86.2858 3.77409C86.2469 3.94201 86.2207 4.09728 86.1315 4.2139C86.063 4.29453 85.9557 4.37449 85.7047 4.39915L85.4162 4.43114L85.3397 4.14259L85.4444 4.11127C85.4887 4.09728 85.6014 4.05596 85.6504 4.02998C85.7772 3.96467 85.7893 3.87071 85.8134 3.77942L86.0174 3.08572C86.0523 2.95311 86.1026 2.82317 86.1952 2.71721C86.2643 2.63058 86.3415 2.59193 86.4052 2.56528V2.55595C86.3126 2.51663 86.2341 2.45466 86.1637 2.35937C86.0744 2.24408 86.0442 2.14346 86.0073 2.01685L85.8651 1.52373C85.8255 1.3678 85.7644 1.31782 85.7383 1.29716C85.702 1.26784 85.6256 1.24185 85.5719 1.22786L85.4035 1.18587L85.4853 0.900665L85.7141 0.924655C85.8121 0.933984 85.9704 0.949977 86.0952 1.06526C86.1885 1.15522 86.2408 1.32248 86.261 1.42777L86.3636 1.92622C86.3791 1.99619 86.42 2.17811 86.5307 2.27873C86.5656 2.31405 86.6703 2.38935 86.8695 2.38935H87.2654V0.938649H87.6901V2.38935H88.082C88.2853 2.38935 88.3866 2.31405 88.4242 2.27873C88.5322 2.17811 88.5751 1.99619 88.5879 1.92622L88.6932 1.42777C88.7134 1.32182 88.7644 1.15522 88.8576 1.06526C88.9818 0.949977 89.1421 0.933984 89.2394 0.924655L89.4675 0.900665L89.5501 1.18587Z" fill="white"/>
<path d="M90.7333 4.3945V0.938663H92.6737L92.6174 1.29184H91.1614V2.41402H92.3792V2.76787H91.1614V4.04132H92.7261V4.3945H90.7333Z" fill="white"/>
<path d="M95.8015 4.39453V2.72258H94.3126V4.39453H93.8885V0.93869H94.3126V2.38406H95.8015V0.93869H96.2269V4.39453H95.8015Z" fill="white"/>
<path d="M101.442 4.08263V5.3101H101.029V4.3945H97.6759V0.938663H98.0912V4.08197H99.1722V0.938663H99.5835V4.08197H100.664V0.938663H101.078V4.08197H101.442V4.08263Z" fill="white"/>
<path d="M104.675 4.3945V1.99621C104.675 1.88559 104.683 1.52907 104.701 1.33649C104.671 1.45244 104.606 1.61437 104.56 1.70033L103.069 4.39383H102.634V0.938663H103.057V3.38227C103.057 3.47823 103.04 3.73012 103.015 3.93137C103.06 3.78943 103.158 3.56886 103.221 3.45291L104.59 0.93933H105.097V4.3945H104.675Z" fill="white"/>
<path d="M108.459 4.3945V2.72256H106.97V4.3945H106.549V0.938663H106.97V2.38404H108.459V0.938663H108.885V4.3945H108.459Z" fill="white"/>
</g>
<defs>
<clipPath id="clip0_135_2613">
<rect width="140.776" height="31.1898" fill="white" transform="translate(0.866211 0.556152)"/>
</clipPath>
</defs>
</svg>
