<svg width="141" height="31" viewBox="0 0 141 31" fill="none" xmlns="http://www.w3.org/2000/svg">
<path d="M40.7693 1.25775V0H31.9884V1.25775H36.2035L29.8318 23.3469L23.68 1.25775H27.4696V0H16.346V1.25775H19.8151L13.4428 23.3469L7.29029 1.25775H11.0806V0H0V1.25775H2.793L11.0712 31H12.4529L20.2049 4.25277L20.4051 3.27783L27.4616 31H28.8466L37.4662 1.25775H40.7693ZM43.9292 7.5061C43.9232 7.5061 43.9218 7.5061 43.9218 7.5061C43.9151 7.5061 43.9131 7.5061 43.905 7.5061C39.3977 7.5061 36.7552 10.2733 36.7391 15.3997H36.735V19.7644H36.7391C36.7653 24.8821 39.3997 27.6434 43.905 27.6434C43.9131 27.6434 43.9151 27.64 43.9198 27.64C43.9198 27.64 43.9232 27.6434 43.9292 27.6434C48.4346 27.6434 51.069 24.8821 51.0952 19.7644H51.1012V15.3997H51.0952C51.0784 10.2733 48.4386 7.5061 43.9292 7.5061ZM47.5818 21.9957C47.5818 26.2154 46.3728 26.8433 43.905 26.8433H43.901C41.4514 26.8433 40.2337 26.2194 40.2075 22.0944V13.1411C40.2256 8.99368 41.4514 8.37176 43.901 8.37176H43.905C46.3728 8.37176 47.5818 8.99897 47.5818 13.2186C47.5818 13.2246 47.5791 13.2246 47.5791 13.2299V21.9845C47.5784 21.9884 47.5818 21.9911 47.5818 21.9957ZM84.6528 7.12924H83.5513L77.4237 26.4207H75.505V27.2592H81.2422V26.4207H78.4808L80.3518 20.5426H85.5789L87.22 26.4207H85.0413V27.2592H91.9834V26.4207H90.1051L84.6528 7.12924ZM80.5957 19.7637L83.0285 12.1066H83.2214L85.3591 19.7637H80.5957ZM72.4378 26.4174L72.4519 8.38103H74.3464V7.54915H69.0212L69.0165 7.55577H69.0138L63.3639 23.1978L58.0085 7.54915L57.997 7.5518V7.54915H52.7161V8.38898H54.5831L54.5804 26.4214H52.829V27.2599H58.3848V26.4214H55.7638V9.31888L62.0481 27.8586H62.9211L69.5326 9.50962L69.5044 26.4207H67.462V27.2592H74.5554V26.4207C74.5554 26.4207 73.5635 26.4174 72.4197 26.4207C72.5857 24.3072 72.4378 26.4174 72.4378 26.4174ZM102.807 8.38103H105.661V21.4076L97.3355 7.57631L97.3315 7.54915H92.4781V8.38103H94.2012V26.4267H92.4781V27.2599H97.9733V26.4267H95.0802V10.1011L105.652 27.6791L105.661 27.644V27.6831H106.538V8.38103H108.416V7.54915H102.806V8.38103H102.807ZM110.565 21.8083C109.51 21.8083 108.655 22.7475 108.655 23.9105C108.655 25.0702 109.51 26.0107 110.565 26.0107C111.617 26.0107 112.476 25.0702 112.476 23.9105C112.475 22.7475 111.617 21.8083 110.565 21.8083ZM124.324 11.1913C124.292 11.1522 124.268 11.1151 124.237 11.0807C124.235 11.0767 124.229 11.072 124.225 11.0667C124.126 10.9528 124.021 10.8627 123.909 10.8005C123.643 10.6369 123.269 10.4945 122.719 10.4945C121.278 10.4945 120.606 11.1919 119.972 12.1483C119.56 12.7702 119.125 13.5928 118.872 14.0942C118.858 13.8319 118.788 13.2955 118.475 12.4742C118.058 11.3661 117.662 10.9767 117.6 10.9243V10.9071H114.196V11.739H116.351V24.7596H114.196V25.5908H121.938V24.7596H118.878V15.752C119.212 14.948 119.721 13.8968 120.481 12.7755C121.254 11.8152 121.653 11.535 122.095 11.535C122.291 11.535 122.295 12.404 122.286 12.8411C122.284 12.906 122.282 12.9709 122.276 13.0378C122.276 13.0676 122.276 13.0901 122.276 13.0901V13.0875C122.276 13.0915 122.276 13.0988 122.276 13.1014C122.276 14.9983 122.85 15.499 123.557 15.499C124.26 15.499 124.83 15.04 124.83 13.1014C124.83 12.3364 124.636 11.6549 124.341 11.2171C124.339 11.2085 124.329 11.1992 124.324 11.1913ZM139.298 24.7503C138.919 24.7503 138.862 24.3629 138.862 24.3337V10.9065H136.329V21.9937C136.294 22.0527 134.646 25.1683 132.342 25.1683C131.156 25.1683 130.779 24.547 130.779 23.8363V10.9144H126.015V11.743H128.243V22.5216C128.243 22.5216 128.14 26.0001 132.009 26.0001C134.601 26.0001 136.055 23.6754 136.329 23.2628V23.3343L136.331 23.3356C136.296 24.6728 136.761 25.567 137.452 25.5776H140.999V24.7497H139.298V24.7503Z" fill="#2D2D2D"/>
<path d="M45.6574 3V0.918049C45.6574 0.822021 45.6645 0.512534 45.677 0.345353C45.6514 0.446008 45.6014 0.586579 45.5639 0.661203L44.3562 3H44V0H44.3448V2.12129C44.3448 2.20459 44.3317 2.42325 44.311 2.59796C44.3458 2.47474 44.428 2.28326 44.4785 2.18261L45.5889 0.000578473H46V3H45.6574Z" fill="#2D2D2D"/>
<path d="M49.6394 3V1.54859H48.3618V3H48V0H48.3618V1.25472H49.6394V0H50V3H49.6394Z" fill="#2D2D2D"/>
<path d="M52.9779 0.303702H52.1626V3H51.8045V0.303702H51V0H53L52.9779 0.303702Z" fill="#2D2D2D"/>
<path d="M55 3V0H56.9508L56.8921 0.306595H55.4243V1.28076H56.654V1.58793H55.4243V2.69341H57V3H55Z" fill="#2D2D2D"/>
<path d="M58.8932 0C59.1865 0 59.3838 0.014462 59.5908 0.141149C59.9553 0.358658 60 0.679136 60 0.857308C60 1.07944 59.9553 1.36406 59.7127 1.56884C59.446 1.79676 59.1352 1.80659 58.9397 1.80659H58.3808V3H58V0H58.8932ZM58.9155 1.51215C59.2233 1.51215 59.3349 1.43463 59.4134 1.35191C59.5106 1.25183 59.5751 1.13324 59.5751 0.914578C59.5751 0.690706 59.5075 0.5484 59.3911 0.451793C59.2372 0.325106 59.0229 0.303702 58.7852 0.303702H58.3808V1.51215H58.9155Z" fill="#2D2D2D"/>
<path d="M62.6369 3V1.54859H61.3625V3H61V0H61.3625V1.25472H62.6369V0H63V3H62.6369Z" fill="#2D2D2D"/>
<path d="M65 3V0H66.9474L66.8895 0.306595H65.4259V1.28076H66.6509V1.58793H65.4259V2.69341H67V3H65Z" fill="#2D2D2D"/>
<path d="M68.9767 0.303702H68.1622V3H67.8049V0.303702H67V0H69L68.9767 0.303702Z" fill="#2D2D2D"/>
<path d="M74.6277 2.86603H75V3.99939H74.5741V3.16232H72.4245V4H72V2.86603H72.2281C72.4946 2.38805 72.6196 1.98628 72.6622 1.84301C72.8079 1.36077 72.8539 0.899253 72.8752 0.479805L72.902 0H74.6283V2.86603H74.6277ZM73.2365 0.724889C73.2235 0.881573 73.172 1.49855 73.0147 1.99665C72.9116 2.30453 72.7392 2.6685 72.6375 2.86664H74.1956V0.296296H73.2675L73.2365 0.724889Z" fill="#2D2D2D"/>
<path d="M76.3863 0.992559C76.3126 1.91357 76.2397 2.54035 75.9017 2.79565C75.7222 2.93303 75.5042 2.96337 75.2987 2.98054L75.0917 3L75 2.75215L75.1223 2.72524C75.1843 2.71322 75.3019 2.67773 75.3615 2.65541C75.7316 2.52261 75.8704 2.12536 75.9684 0.709788L76.0154 0H78V2.96909H77.5052V0.278191H76.4396L76.3863 0.992559Z" fill="#2D2D2D"/>
<path d="M81.4993 2.96852V1.62793H80.8442C80.6311 1.62793 80.5036 1.6806 80.4299 1.73039C80.3016 1.81797 80.2517 1.96966 80.2287 2.04694L80.1201 2.4356C80.0861 2.55238 80.0489 2.7075 79.9348 2.81339C79.8492 2.88666 79.709 2.95135 79.4333 2.97252L79.0935 3L79 2.75215L79.122 2.72524C79.1782 2.71322 79.3113 2.67773 79.3652 2.65541C79.4579 2.62164 79.5086 2.58329 79.5632 2.44476L79.7447 1.9605C79.7946 1.82713 79.8627 1.71837 79.9601 1.64453C80.0314 1.58844 80.1542 1.51918 80.3396 1.48941V1.48025C80.1289 1.46251 79.9403 1.4024 79.8112 1.32856C79.5933 1.20321 79.4674 1.00859 79.4674 0.806525C79.4674 0.58901 79.5973 0.333715 79.8785 0.182026C80.1542 0.0360618 80.4648 0 80.9385 0H82V2.96852H81.4993ZM80.9298 0.277619C80.7713 0.277619 80.544 0.291357 80.3443 0.373211C80.1241 0.46308 79.9942 0.611334 79.9942 0.836291C79.9942 1.06125 80.1732 1.18203 80.2849 1.23927C80.5083 1.35089 80.7713 1.35089 80.9678 1.35089H81.4914V0.277619H80.9298Z" fill="#2D2D2D"/>
<path d="M88.9403 0.242356L88.7796 0.278029C88.7319 0.289921 88.6603 0.312005 88.6239 0.33692C88.5994 0.354473 88.5429 0.396942 88.5052 0.529445L88.3733 0.948471C88.3413 1.05549 88.3099 1.141 88.2295 1.23952C88.1611 1.3205 88.0876 1.37316 88.0016 1.40657V1.4145C88.0606 1.43715 88.1315 1.46999 88.1994 1.5436C88.2823 1.6342 88.3294 1.74405 88.3658 1.85674L88.5523 2.44621C88.5768 2.52435 88.5856 2.60362 88.7061 2.65912C88.7507 2.6812 88.8575 2.71574 88.902 2.7282L89 2.75481L88.9265 3L88.6565 2.97282C88.4223 2.9513 88.3187 2.88392 88.2578 2.8154C88.1692 2.71631 88.1441 2.58494 88.1127 2.44168L88.0053 1.96716C87.9934 1.91959 87.9526 1.74405 87.8465 1.65515C87.7887 1.60419 87.6882 1.55153 87.5193 1.55153H87.1984V2.96886H86.8009V1.55153H86.4794C86.3111 1.55153 86.2094 1.60362 86.1516 1.65515C86.0436 1.74405 86.0003 1.91903 85.9928 1.96716L85.8854 2.44168C85.849 2.58437 85.8245 2.71631 85.741 2.8154C85.6769 2.88392 85.5765 2.95187 85.3416 2.97282L85.0716 3L85 2.75481L85.098 2.7282C85.1394 2.71631 85.2449 2.6812 85.2907 2.65912C85.4094 2.60362 85.4207 2.52378 85.4433 2.44621L85.6342 1.85674C85.6669 1.74405 85.714 1.63364 85.8006 1.5436C85.8653 1.46999 85.9375 1.43715 85.9972 1.4145V1.40657C85.9105 1.37316 85.837 1.3205 85.7711 1.23952C85.6876 1.14156 85.6593 1.05606 85.6248 0.948471L85.4917 0.529445C85.4546 0.396942 85.3975 0.354473 85.373 0.33692C85.3391 0.312005 85.2675 0.289921 85.2173 0.278029L85.0597 0.242356L85.1363 0L85.3504 0.020385C85.4421 0.0283125 85.5903 0.0419026 85.7071 0.139864C85.7943 0.216308 85.8433 0.358437 85.8622 0.447905L85.9582 0.871461C85.9727 0.930917 86.011 1.0855 86.1146 1.17101C86.1472 1.20102 86.2452 1.26501 86.4317 1.26501H86.8022V0.0322763H87.1997V1.26501H87.5664C87.7567 1.26501 87.8515 1.20102 87.8867 1.17101C87.9877 1.0855 88.0279 0.930917 88.0399 0.871461L88.1385 0.447905C88.1573 0.357871 88.205 0.216308 88.2923 0.139864C88.4085 0.0419026 88.5586 0.0283125 88.6496 0.020385L88.8631 0L88.9403 0.242356Z" fill="#2D2D2D"/>
<path d="M90 3V0H91.9475L91.8909 0.306595H90.4296V1.28076H91.6519V1.58793H90.4296V2.69341H92V3H90Z" fill="#2D2D2D"/>
<path d="M94.6362 3V1.54859H93.3627V3H93V0H93.3627V1.25472H94.6362V0H95V3H94.6362Z" fill="#2D2D2D"/>
<path d="M101 2.87683V4H100.561V3.1622H97V0H97.4411V2.87622H98.5892V0H99.026V2.87622H100.174V0H100.613V2.87622H101V2.87683Z" fill="#2D2D2D"/>
<path d="M103.657 3V0.918049C103.657 0.822021 103.664 0.512534 103.679 0.345353C103.654 0.446008 103.602 0.586579 103.564 0.661203L102.354 2.99942H102V0H102.344V2.12129C102.344 2.20459 102.33 2.42325 102.309 2.59796C102.347 2.47474 102.425 2.28326 102.477 2.18261L103.589 0.000578473H104V3H103.657Z" fill="#2D2D2D"/>
<path d="M107.635 3V1.54859H106.361V3H106V0H106.361V1.25472H107.635V0H108V3H107.635Z" fill="#2D2D2D"/>
</svg>
